<svg width="57" height="73" viewBox="0 0 57 73" fill="none" xmlns="http://www.w3.org/2000/svg">
<g clip-path="url(#clip0_1_219)">
<path d="M56.9786 18.6939C57.0514 17.0012 56.3709 15.2998 54.6931 14.1611C51.8513 12.2328 47.383 13.8165 47.4044 17.2193C47.0877 18.2794 47.0577 19.4661 47.2889 20.5655C44.2844 21.6692 41.344 23.0958 38.3481 24.2519C36.9314 20.9494 35.4806 17.6687 33.8285 14.4709C31.1835 9.35348 27.2246 2.01553 21.4681 0.00871729C21.3055 -0.047997 21.237 0.183223 21.3568 0.274838C26.6083 4.23611 29.8439 10.0035 32.7928 15.8189C34.2822 18.755 35.5662 21.7826 36.8245 24.819C34.1837 25.7395 31.4831 26.3765 28.6412 26.3372C27.8109 26.3241 27.5927 27.694 28.4401 27.8423C34.9456 28.9766 41.0915 25.3076 47.1519 22.8777C42.9875 28.0736 40.4367 34.491 36.0198 39.5298C35.2537 40.4024 36.5035 41.6893 37.2867 40.8212C38.8018 39.1372 40.0943 37.2874 41.3184 35.381C42.8934 39.1198 44.3486 42.9152 45.5598 46.7893C46.3558 49.337 47.0492 51.9677 47.3017 54.6376C47.4772 56.531 46.9165 57.8747 46.5613 59.6329C46.5484 59.6939 46.5484 59.7507 46.5527 59.803C46.3644 60.1258 46.1418 60.44 45.8808 60.7497C44.3956 61.1467 42.9062 61.2165 41.3954 60.4967C38.9173 59.3144 37.0256 56.9062 35.4677 54.6944C32.1722 50.0089 29.6641 44.7039 27.644 39.3335C24.417 30.7522 21.3697 21.7521 19.8203 12.6778C19.4608 10.5619 19.448 8.31954 19.5207 6.17748C19.5592 5.03447 19.5849 2.67429 20.4495 1.95882C20.5565 1.89774 20.6677 1.84102 20.7747 1.77995C21.1 1.68397 21.5152 1.77122 22.0373 2.1246C22.4182 2.38199 22.7949 1.82357 22.5038 1.5051C22.1957 1.16482 21.8747 0.911783 21.5537 0.750365C21.4082 0.484245 21.0786 0.296651 20.7277 0.449344C20.672 0.475519 20.6164 0.506058 20.5607 0.532234C20.1285 0.567135 19.7219 0.772179 19.3709 1.16482C11.3375 6.02479 11.5943 19.4268 12.4631 27.6068C13.0409 33.0339 14.3977 38.3519 16.3878 43.4126C16.3108 43.5347 16.238 43.6613 16.1567 43.7834C13.272 46.3617 10.7169 49.3283 8.91508 52.7966C8.8894 52.8315 8.86372 52.8664 8.83804 52.9013C8.79524 52.9624 8.76956 53.0235 8.74816 53.0845C8.64117 53.2111 8.53845 53.3419 8.44001 53.4728C8.43145 53.4641 8.41861 53.451 8.41005 53.4423C8.15753 53.2285 7.81514 53.4903 7.95638 53.7957C7.99062 53.8655 8.02486 53.9309 8.0591 54.0007C6.78796 55.8897 5.99189 58.2892 5.26003 60.3745C4.79352 61.186 4.3056 61.9931 3.79629 62.8045C2.44384 64.9553 1.2155 67.1584 0.423715 69.5666C0.385196 69.6102 0.350956 69.6538 0.312437 69.6975C0.0385219 69.9985 0.00428253 70.3475 0.102721 70.6529C0.0770412 70.7489 0.0470818 70.8405 0.0256821 70.9365C-0.239673 72.0184 1.24118 72.7339 1.81897 71.7828C3.68074 73.2399 6.7366 73.0654 8.90224 72.8647C11.8083 72.5986 14.6545 71.7348 17.5434 71.3073C17.552 71.3247 17.5605 71.3378 17.5648 71.3553C17.6975 71.6432 18.057 71.4862 18.0998 71.2288C18.8017 71.1415 19.5079 71.0804 20.2226 71.0673C20.6934 71.0586 21.1043 70.4784 20.8004 70.0421C20.6249 69.7891 20.4495 69.5317 20.274 69.2699C19.7904 66.0547 17.9329 62.9921 16.2123 60.3222C14.7914 58.1147 12.5958 54.498 9.8267 53.9658C9.82242 53.9658 9.81386 53.9658 9.80958 53.9702C9.83526 53.8742 9.86522 53.7782 9.8909 53.6866C10.1391 53.3943 10.3788 53.0889 10.6185 52.7879C10.4987 53.0017 10.3745 53.2154 10.259 53.4292C9.99362 53.9004 10.6613 54.2755 10.9609 53.848C11.0165 53.7651 11.0764 53.6866 11.1321 53.6037C11.0893 53.7128 11.0422 53.8218 10.9994 53.9309C10.7854 54.4501 11.6114 54.6726 11.8211 54.1621C12.1122 53.451 12.3904 52.7443 12.6729 52.0419C14.3292 50.1834 15.7886 48.1155 17.7274 46.5711C18.9601 49.2672 20.381 51.8674 22.0031 54.3453C22.7307 55.4535 23.5738 56.7055 24.5368 57.8442C25.5126 59.105 26.604 60.2567 27.8452 61.1074C28.3716 62.0672 29.1463 62.9223 29.9894 63.568C32.3904 65.4134 35.6175 65.8976 38.545 65.6533C40.625 65.4788 43.1545 64.5539 45.2131 63.0881C46.313 62.7871 47.3616 62.0803 48.2989 60.8326C48.4787 60.597 48.3203 60.2611 48.0806 60.1346C48.1748 59.9775 48.2647 59.8205 48.3503 59.6634C50.4089 57.4734 48.4701 50.6327 47.9608 48.7045C46.5955 43.526 44.5668 38.5221 42.414 33.6272C44.5112 30.2069 46.4928 26.7037 49.0864 23.6804C49.8354 24.2693 50.7941 24.5747 51.9369 24.4264C53.422 24.2344 54.6674 23.4492 55.5534 22.3716C56.2382 21.7434 56.7389 20.8796 56.9272 19.898C57.0086 19.4923 57.0171 19.0865 56.9786 18.6939ZM9.10768 69.5186C8.99212 69.2481 8.81664 68.9558 8.69252 68.7202C8.26453 67.9001 7.84938 67.0799 7.40855 66.2772C7.42139 66.2292 7.43851 66.1768 7.45135 66.1288C8.00346 66.805 8.50849 67.5162 8.96216 68.2622C8.97072 68.2883 8.97928 68.3145 8.98356 68.3407C9.07344 68.729 9.12908 69.1216 9.17188 69.5142C9.15048 69.523 9.12908 69.5186 9.10768 69.5186ZM5.44834 67.8259C5.34991 67.7517 5.24291 67.6819 5.14447 67.6078C5.19583 67.4551 5.24719 67.298 5.29855 67.141C5.36274 67.298 5.42694 67.4551 5.49542 67.6121C5.4783 67.6819 5.46546 67.7517 5.44834 67.8259ZM10.4644 60.3353C10.2932 61.0376 10.1135 61.7357 9.92942 62.4337C10.045 61.5873 10.1263 60.7366 10.1349 59.8903C10.2461 60.0386 10.3574 60.1869 10.4644 60.3353ZM6.35569 63.1666C6.38565 63.0968 6.41989 63.027 6.44984 62.9572C6.36853 63.2888 6.29577 63.6247 6.22301 63.9562C6.17593 63.9562 6.13313 63.965 6.09461 63.9868C6.13741 63.7861 6.17593 63.6334 6.20161 63.5418C6.21445 63.4982 6.22729 63.4589 6.24013 63.4153C6.27865 63.3324 6.31717 63.2495 6.35569 63.1666ZM12.5359 63.4633C12.5359 63.4676 12.5359 63.4676 12.5359 63.4633C12.5359 63.4676 12.5359 63.4676 12.5359 63.4676C12.5359 63.4676 12.5359 63.4676 12.5359 63.4633ZM13.5674 63.232C13.5674 63.2582 13.5674 63.28 13.5674 63.3062C13.4475 63.1884 13.3277 63.075 13.2036 62.9616C13.2164 62.9223 13.225 62.8874 13.2335 62.8481C13.3448 62.9746 13.4561 63.1012 13.5674 63.232ZM9.62127 66.5607C9.59131 66.5302 9.56135 66.4953 9.52711 66.4648C9.53995 66.4037 9.55279 66.3382 9.56563 66.2772C9.58703 66.3731 9.59987 66.4648 9.62127 66.5607ZM9.38587 67.1715C9.51855 67.298 9.65123 67.4202 9.78818 67.538C9.84382 67.9262 9.8909 68.3102 9.92086 68.7028C9.90374 68.6679 9.88662 68.633 9.86522 68.5981C9.67691 68.1618 9.51855 67.7125 9.36447 67.2588C9.37303 67.2326 9.37731 67.202 9.38587 67.1715ZM10.2205 67.1104C10.1135 66.4604 9.98078 65.8147 9.81386 65.1734C9.83526 65.0905 9.85238 65.0076 9.87378 64.9247C10.0407 65.2301 10.2119 65.5311 10.3831 65.8322C10.3531 66.2859 10.3275 66.7396 10.3146 67.1933C10.2847 67.1671 10.2547 67.1366 10.2205 67.1104ZM10.2889 64.2224C10.3574 64.3009 10.4259 64.3794 10.4987 64.4623C10.4987 64.4885 10.4944 64.5147 10.4944 64.5408C10.4216 64.4318 10.3574 64.3271 10.2889 64.2224ZM12.0565 66.9839C12.1207 66.7963 12.1807 66.6087 12.2406 66.4211C12.2877 66.4691 12.3347 66.5215 12.3818 66.5695C12.5017 67.0973 12.6429 67.6208 12.8141 68.14C12.5573 67.7561 12.3091 67.3722 12.0565 66.9839ZM11.7013 66.4342C11.4488 66.0416 11.2006 65.6533 10.948 65.2607C10.9566 65.1778 10.9609 65.0905 10.9694 65.0076C11.2562 65.3348 11.5472 65.6577 11.8383 65.9805C11.7955 66.1288 11.7484 66.2815 11.7013 66.4342ZM11.0465 64.1744C11.0593 64.0391 11.0764 63.9039 11.0893 63.7686C11.2733 64.1656 11.4745 64.5539 11.7013 64.9247C11.4788 64.6761 11.2648 64.423 11.0465 64.1744ZM11.543 62.233C11.5344 62.2286 11.5258 62.2199 11.5173 62.2155C11.5344 62.1501 11.5515 62.0847 11.5686 62.0192C11.5601 62.089 11.5515 62.1588 11.543 62.233ZM10.5329 62.3115C10.5757 62.4599 10.627 62.6038 10.6741 62.7478C10.6399 63.0444 10.6099 63.3411 10.58 63.6378C10.4815 63.5243 10.3831 63.4109 10.2804 63.2931C10.366 62.9659 10.4473 62.6387 10.5329 62.3115ZM8.42289 62.4511C8.65401 63.0619 8.86372 63.677 9.05204 64.2965C8.98356 64.7721 8.91508 65.2476 8.85944 65.7231C8.85088 65.71 8.83804 65.6969 8.8252 65.6838C8.7182 65.553 8.55129 65.5748 8.43573 65.6664C8.30733 65.4308 8.16609 65.1952 8.01202 64.964C7.9521 64.8724 7.85794 64.8462 7.77234 64.8593C7.96494 63.9693 8.10617 63.0619 8.22601 62.1501C8.29021 62.2505 8.35441 62.3508 8.42289 62.4511ZM7.6525 65.3785C7.66106 65.4046 7.66962 65.4352 7.6739 65.4613C7.66106 65.4483 7.6525 65.4308 7.63966 65.4177C7.64822 65.4046 7.6525 65.3915 7.6525 65.3785ZM10.8325 68.3625C10.8624 68.3843 10.8924 68.4061 10.9224 68.4236C10.8924 68.489 10.8667 68.5588 10.8325 68.6243C10.8282 68.5414 10.8325 68.4498 10.8325 68.3625ZM10.8368 67.6078C10.841 67.2893 10.8496 66.9665 10.8624 66.648C11.0208 66.9097 11.1834 67.1715 11.3504 67.4245C11.2947 67.5685 11.2348 67.7125 11.1749 67.8564C11.0593 67.7735 10.948 67.6907 10.8368 67.6078ZM11.7013 67.9437C11.8254 68.1182 11.9495 68.2883 12.0779 68.4585C11.9196 68.3581 11.7612 68.2578 11.6072 68.1575C11.6371 68.0833 11.6713 68.0135 11.7013 67.9437ZM13.1565 67.3722C13.2934 67.5074 13.4304 67.6427 13.5716 67.7779C13.5716 68.0702 13.5716 68.3625 13.5716 68.6504C13.4133 68.2273 13.2763 67.7997 13.1565 67.3722ZM12.7413 65.4264C12.7157 65.265 12.6943 65.108 12.6729 64.9466C12.7585 64.6324 12.844 64.314 12.9254 63.9955C13.1608 64.3358 13.3705 64.6892 13.5716 65.0513C13.5716 65.553 13.5716 66.0503 13.5716 66.552C13.2806 66.1812 13.0024 65.806 12.7413 65.4264ZM14.0724 66.0503C14.1323 66.1768 14.1837 66.3077 14.2393 66.4386C14.1837 66.6044 14.1237 66.7745 14.0681 66.9403C14.0681 66.6436 14.0681 66.347 14.0724 66.0503ZM12.797 62.5122C12.5445 62.1632 12.2877 61.8142 12.0309 61.4695C12.3005 61.7749 12.5616 62.0803 12.8312 62.3857C12.8226 62.4293 12.8098 62.4686 12.797 62.5122ZM11.9281 62.6474C11.9367 63.1971 11.9667 63.7381 12.018 64.2747C11.7013 63.7163 11.4317 63.1273 11.222 62.4991C11.2348 62.3857 11.2476 62.2766 11.2605 62.1632C11.4873 62.3203 11.7099 62.4817 11.9281 62.6474ZM9.34307 62.2243C9.0178 61.8578 8.68396 61.4914 8.35013 61.1336C8.44001 60.3658 8.52561 59.5936 8.62405 58.8214C8.7182 58.6251 8.82092 58.4331 8.92792 58.2455C9.1034 58.4899 9.28315 58.7298 9.45863 58.9741C9.54851 60.056 9.47147 61.138 9.34307 62.2243ZM3.55662 69.92C3.6893 69.9112 3.82197 69.8589 3.94609 69.7673C3.97605 69.7891 4.00601 69.8109 4.04025 69.8327C3.87761 69.8676 3.71498 69.9025 3.55234 69.9461C3.55234 69.9331 3.55662 69.9243 3.55662 69.92ZM5.63666 65.9281C5.76506 65.4395 5.87206 64.9771 5.96193 64.5845C5.98333 64.6935 6.00473 64.8026 6.02613 64.916C5.94481 65.3305 5.8635 65.7449 5.78218 66.1594C5.7351 66.0808 5.68802 66.0023 5.63666 65.9281ZM11.3589 68.7246C11.8126 69.0213 12.2834 69.3048 12.767 69.571C12.1507 69.5753 11.5344 69.571 10.9138 69.5579C11.0722 69.2874 11.2262 69.0082 11.3589 68.7246ZM13.9269 69.5448C13.8413 69.3528 13.76 69.1609 13.6872 68.9645C13.8199 69.0474 14.0167 69.0169 14.0595 68.8249C14.0981 68.6635 14.1366 68.5065 14.1794 68.3451C14.2564 68.4149 14.3292 68.4934 14.4105 68.5632C14.7058 68.8206 15.0696 68.4367 14.8299 68.1356C14.6844 67.9524 14.5389 67.7692 14.3891 67.5903C14.4319 67.442 14.479 67.298 14.5261 67.1497C14.7401 67.7037 14.9369 68.2665 15.1252 68.8424C15.2494 69.2219 15.84 69.0562 15.7159 68.6766C15.4976 68.0309 15.2708 67.394 15.0225 66.7745C15.5532 67.6034 16.0583 68.4498 16.5333 69.3136C15.6731 69.4401 14.8043 69.5099 13.9269 69.5448ZM11.6328 58.0623C11.6371 57.9838 11.6371 57.9096 11.6414 57.8355C11.8254 58.0841 12.0095 58.3415 12.1892 58.5946C12.0052 58.4157 11.8211 58.2368 11.6328 58.0623ZM12.9981 61.6789C12.5017 61.1118 11.9966 60.549 11.4916 59.9906C11.5044 59.8728 11.513 59.755 11.5216 59.6372C12.0095 60.3222 12.5017 60.9984 12.9981 61.6789ZM10.7383 59.1573C10.5158 58.913 10.2847 58.6774 10.0621 58.4375C10.0107 57.9969 9.92942 57.5563 9.80958 57.1156C10.1434 57.6391 10.4858 58.1583 10.841 58.6687C10.8068 58.8301 10.7726 58.9916 10.7383 59.1573ZM9.17616 56.675C9.06916 56.8102 8.975 56.9498 8.87656 57.0851C8.89368 56.9935 8.9108 56.8975 8.92792 56.8059C9.00924 56.5616 9.09056 56.3216 9.17188 56.0773C9.27031 56.2475 9.37303 56.4132 9.47575 56.5834C9.37303 56.5528 9.25319 56.5703 9.17616 56.675ZM4.93903 69.6669C4.72932 69.5753 4.5196 69.4793 4.31416 69.3746C4.53672 69.0693 4.74216 68.6504 4.92619 68.1836C5.05459 68.2709 5.18299 68.3669 5.30711 68.4628C5.29855 68.5108 5.28571 68.5632 5.27287 68.6112C5.14875 69.1565 5.7993 69.523 6.16309 69.1827C6.23585 69.2525 6.31717 69.3136 6.38993 69.3877C6.56968 69.5535 6.82648 69.4488 6.89496 69.2612C6.93776 69.3441 6.98056 69.427 7.02763 69.5055C6.32573 69.5186 5.6281 69.5666 4.93903 69.6669ZM7.68674 69.4968C7.68246 69.4706 7.68246 69.4444 7.66962 69.4183C7.38287 68.7421 7.19883 68.044 7.05331 67.3373C7.15175 67.0755 7.24163 66.8094 7.32723 66.5433C7.81942 67.5249 8.26881 68.5239 8.75672 69.5099C8.40577 69.5055 8.04626 69.4968 7.68674 69.4968ZM9.54851 69.5317C9.54423 69.4619 9.53567 69.3877 9.52711 69.3179C9.56135 69.3877 9.59131 69.4619 9.62555 69.5317C9.60415 69.5317 9.57847 69.5317 9.54851 69.5317ZM17.5006 69.139C17.2524 68.537 16.9656 67.9611 16.666 67.3853C17.1753 67.9001 17.706 68.3887 18.271 68.8424C18.2967 68.8729 18.3181 68.9035 18.3437 68.9384C18.0656 69.0125 17.7831 69.078 17.5006 69.139ZM13.165 57.9489C13.8498 59.1661 14.4704 60.4225 15.0996 61.6789C15.1167 61.7138 15.1338 61.7444 15.1509 61.7793C14.6716 61.0071 14.2051 60.2262 13.7214 59.454C13.4732 58.8912 13.2378 58.3197 13.011 57.7438C13.0623 57.8136 13.1137 57.8834 13.165 57.9489ZM12.5445 58.0929C12.2663 57.6959 11.9752 57.3076 11.6799 56.9237C11.6799 56.9193 11.6799 56.9193 11.6799 56.9149C11.6799 56.88 11.6713 56.8495 11.6628 56.8233C11.9538 57.2029 12.2406 57.5955 12.5102 57.9969C12.5231 58.0274 12.5316 58.0623 12.5445 58.0929ZM11.4788 56.6663C10.9908 56.0468 10.4773 55.4447 9.92514 54.8732C10.5286 55.4404 11.0679 56.0642 11.5772 56.7186C11.5515 56.6924 11.5173 56.6794 11.4788 56.6663ZM11.115 57.1374C11.0764 57.3774 11.0379 57.6173 10.9951 57.8573C10.4387 57.0327 9.90802 56.1951 9.41583 55.3269C9.42867 55.292 9.43723 55.2571 9.45007 55.2222C10.0407 55.833 10.5928 56.4743 11.115 57.1374ZM5.67946 71.7784C7.15603 71.6432 8.62833 71.5385 10.1434 71.5254C8.62833 71.7784 7.13035 71.9137 5.67946 71.7784ZM11.9153 56.3609C12.018 56.6488 12.1122 56.9411 12.2192 57.229C11.4745 56.2344 10.6356 55.3226 9.65979 54.5373C9.70259 54.4021 9.73682 54.2668 9.77534 54.1316C10.5415 54.8383 11.2476 55.58 11.9153 56.3609ZM16.9742 45.0878C16.9913 45.0617 17.0127 45.0398 17.0341 45.0137C17.0469 45.0398 17.0555 45.0617 17.0683 45.0878C17.0384 45.0835 17.0084 45.0835 16.9742 45.0878ZM17.0812 46.004C17.1539 45.9255 17.2267 45.8426 17.3037 45.764C17.3208 45.7466 17.3294 45.7248 17.338 45.7073C17.3551 45.7379 17.3679 45.7728 17.3808 45.8033C17.2823 45.8731 17.1796 45.9342 17.0812 46.004ZM29.3731 61.2645C29.356 61.2252 29.3346 61.1816 29.3003 61.1423C29.0949 60.8937 28.8852 60.6537 28.6755 60.4138C28.3245 59.9121 28.0121 59.3667 27.7639 58.7647C27.6825 58.5684 27.4129 58.5422 27.2503 58.6295C27.2203 58.6469 27.1903 58.6513 27.1604 58.6644C25.9663 57.1723 24.6909 55.737 23.6081 54.1403C21.7891 51.4486 20.304 48.5256 18.9815 45.5546C19.0029 45.415 18.9344 45.2667 18.8188 45.1838C18.3694 44.1586 17.9543 43.1246 17.5562 42.0776C16.9143 40.3195 16.3279 38.5395 15.7972 36.7378C15.061 34.1071 14.4875 31.4284 14.0981 28.7018C13.3962 23.7545 13.3234 18.6023 14.0981 13.6594C14.6545 10.1213 15.8143 6.34763 18.241 3.7475C17.7702 5.79357 17.8558 8.09268 17.9072 10.0864C18.0014 13.9953 18.9729 17.817 19.9145 21.5863C21.3953 27.5195 23.3256 33.3 25.3072 39.0718C27.4386 45.2798 30.2548 51.658 34.2479 56.8582C36.1397 59.3231 39.3838 62.4293 42.6023 63.123C41.6051 63.5723 40.548 63.8952 39.508 64.1089C35.8572 64.8593 31.8512 63.9606 29.3731 61.2645Z" fill="#5E4F47"/>
</g>
<defs>
<clipPath id="clip0_1_219">
<rect width="57" height="73" fill="white"/>
</clipPath>
</defs>
</svg>
