<svg width="139" height="35" viewBox="0 0 139 35" fill="none" xmlns="http://www.w3.org/2000/svg">
<path fill-rule="evenodd" clip-rule="evenodd" d="M55.3865 26.7784C53.3703 32.0636 48.8635 34.8824 42.9334 34.8824H0L0.711604 32.6509H42.2218C48.2705 32.6509 52.5401 29.7146 54.4377 24.0771L54.6749 23.1375L57.8771 11.51C59.6561 5.28521 66.4164 0 72.9394 0H139L136.865 7.3993H72.8208C66.2978 7.3993 60.7235 11.1577 57.7585 19.0268C56.9283 21.6107 56.5725 24.4294 55.3865 26.7784Z" fill="white"/>
<path d="M27.9898 29.4797H36.2918L39.0196 19.7314H44.1195L41.3917 29.4797H44.0009C47.6775 29.2448 49.6937 27.483 50.9983 24.1945C51.2355 23.6072 51.5913 23.1374 51.7099 22.5502L56.4539 5.98983H48.1519L45.6613 14.6811H40.5615L42.9335 5.87238H34.6314L27.9898 29.4797Z" fill="white"/>
<path d="M24.0761 29.4797H16.3671L20.5181 14.916H20.3995L10.6742 29.4797H1.66058L8.42082 5.87238H16.1299L11.9788 20.4361H12.0974L21.5855 5.87238H30.8364L24.0761 29.4797Z" fill="white"/>
<path d="M125.124 19.4967H133.07L133.544 17.9699C133.9 16.7954 134.019 15.7383 133.9 14.9162C133.782 13.9766 133.426 13.2719 132.833 12.5672C132.24 11.8625 131.291 11.3927 130.105 11.0404C128.919 10.688 127.377 10.5706 125.48 10.5706C123.345 10.5706 121.447 10.8055 119.905 11.1578C118.364 11.6276 116.94 12.3323 115.754 13.2719C114.568 14.2115 113.619 15.5034 112.789 17.0303C111.959 18.5571 111.247 20.5538 110.536 22.7853C109.943 25.0168 109.468 26.896 109.35 28.4228C109.231 29.9497 109.468 31.2416 109.943 32.1812C110.536 33.1208 111.485 33.8255 112.789 34.2953C114.094 34.7651 115.991 35 118.245 35C119.55 35 120.854 34.8826 122.159 34.6477C123.463 34.4128 124.768 33.943 125.835 33.3557C127.021 32.7685 127.97 31.9463 128.919 30.8893C129.749 29.8322 130.461 28.4228 130.935 26.7786L131.41 25.0168H123.463C123.108 26.0739 122.87 27.0135 122.515 27.8356C122.277 28.5403 121.922 29.1275 121.684 29.5973C121.329 30.0671 121.091 30.302 120.617 30.5369C120.261 30.7718 119.787 30.7718 119.312 30.7718C118.719 30.7718 118.245 30.6544 117.889 30.4195C117.533 30.1846 117.415 29.7148 117.415 29.1275C117.415 28.5403 117.533 27.7182 117.771 26.6611C118.008 25.6041 118.364 24.3121 118.838 22.6678C119.312 21.141 119.668 19.7316 120.024 18.6746C120.38 17.6175 120.736 16.7954 121.091 16.2081C121.447 15.6209 121.803 15.1511 122.277 14.9162C122.752 14.6813 123.226 14.5638 123.938 14.5638C124.412 14.5638 124.887 14.6813 125.124 14.9162C125.361 15.1511 125.598 15.5034 125.598 15.9732C125.598 16.443 125.48 17.1477 125.242 18.0873L125.124 19.4967Z" fill="white"/>
<path d="M74.9557 19.4967H82.902L83.3764 17.9699C83.7322 16.7954 83.8508 15.7383 83.7322 14.9162C83.6136 13.9766 83.2578 13.2719 82.6647 12.5672C82.0717 11.8625 81.1229 11.3927 79.9369 11.0404C78.7509 10.688 77.2091 10.5706 75.3115 10.5706C73.1767 10.5706 71.2791 10.8055 69.7373 11.1578C68.1955 11.6276 66.7723 12.3323 65.5863 13.2719C64.4002 14.2115 63.4514 15.5034 62.6212 17.0303C61.791 18.5571 61.0794 20.5538 60.3678 22.7853C59.7748 25.0168 59.3004 26.896 59.1818 28.4228C59.0632 29.9497 59.3004 31.2416 59.7748 32.1812C60.3678 33.1208 61.3166 33.8255 62.6212 34.2953C63.9258 34.7651 65.8234 35 68.0769 35C69.3815 35 70.6861 34.8826 71.9907 34.6477C73.2953 34.4128 74.5999 33.943 75.6673 33.3557C76.8533 32.7685 77.8021 31.9463 78.7509 30.8893C79.5811 29.8322 80.2927 28.4228 80.7671 26.7786L81.2415 25.0168H73.2953C72.9395 26.0739 72.7023 27.0135 72.3465 27.8356C72.1093 28.5403 71.7535 29.1275 71.5163 29.5973C71.1605 30.0671 70.9233 30.302 70.4489 30.5369C70.0931 30.7718 69.6187 30.7718 69.1443 30.7718C68.5513 30.7718 68.0769 30.6544 67.7211 30.4195C67.3653 30.1846 67.2467 29.7148 67.2467 29.1275C67.2467 28.5403 67.3653 27.7182 67.6025 26.6611C67.8397 25.6041 68.1955 24.3121 68.6699 22.6678C69.1443 21.141 69.5001 19.7316 69.8559 18.6746C70.2117 17.6175 70.5675 16.7954 70.9233 16.2081C71.2791 15.6209 71.6349 15.1511 72.1093 14.9162C72.5837 14.6813 73.0581 14.5638 73.7697 14.5638C74.2441 14.5638 74.7185 14.6813 74.9557 14.9162C75.1929 15.1511 75.4301 15.5034 75.4301 15.9732C75.4301 16.443 75.3115 17.1477 75.0743 18.0873L74.9557 19.4967Z" fill="white"/>
<path d="M104.25 34.6476H96.5411L100.692 20.0839L90.9669 34.6476H81.9533L88.5949 11.0403H96.4225L92.2715 25.604L101.76 11.0403H111.01L104.25 34.6476Z" fill="white"/>
</svg>
