<svg width="293" height="74" viewBox="0 0 293 74" fill="none" xmlns="http://www.w3.org/2000/svg">
<path fill-rule="evenodd" clip-rule="evenodd" d="M116.75 56.6172C112.5 67.7917 103 73.7514 90.5 73.7514H0L1.5 69.0333H89C101.75 69.0333 110.75 62.8252 114.75 50.9058L115.25 48.9193L122 24.3355C125.75 11.1745 140 0 153.75 0H293L288.5 15.6442H153.5C139.75 15.6442 128 23.5905 121.75 40.228C120 45.6911 119.25 51.6508 116.75 56.6172Z" fill="#5E4F47"/>
<path d="M59 62.3284H76.5L82.25 41.7178H93L87.2501 62.3284H92.75C100.5 61.8318 104.75 58.107 107.5 51.154C108 49.9124 108.75 48.9191 109 47.6775L119 12.6642H101.5L96.25 31.04H85.5L90.5001 12.4159H73L59 62.3284Z" fill="#5E4F47"/>
<path d="M50.7504 62.3284H34.5004L43.2504 31.5366H43.0004L22.5004 62.3284H3.50036L17.7504 12.4159H34.0004L25.2504 43.2077H25.5004L45.5004 12.4159H65.0004L50.7504 62.3284Z" fill="#5E4F47"/>
<path d="M263.75 41.2216H280.5L281.5 37.9934C282.25 35.5102 282.5 33.2753 282.25 31.5371C282 29.5505 281.25 28.0606 280 26.5707C278.75 25.0807 276.75 24.0875 274.25 23.3425C271.75 22.5975 268.5 22.3492 264.5 22.3492C260 22.3492 256 22.8459 252.75 23.5908C249.5 24.5841 246.5 26.074 244 28.0606C241.5 30.0472 239.5 32.7787 237.75 36.0069C236 39.235 234.5 43.4565 233 48.1746C231.75 52.8927 230.75 56.8658 230.5 60.094C230.25 63.3222 230.75 66.0537 231.75 68.0403C233 70.0269 235 71.5168 237.75 72.5101C240.5 73.5034 244.5 74 249.25 74C252 74 254.75 73.7517 257.5 73.255C260.25 72.7584 263 71.7651 265.25 70.5235C267.75 69.2819 269.75 67.5436 271.75 65.3088C273.5 63.0739 275 60.094 276 56.6175L277 52.8927H260.25C259.5 55.1276 259 57.1142 258.25 58.8524C257.75 60.3423 257 61.5839 256.5 62.5772C255.75 63.5705 255.25 64.0672 254.25 64.5638C253.5 65.0604 252.5 65.0604 251.5 65.0604C250.25 65.0604 249.25 64.8121 248.5 64.3155C247.75 63.8188 247.5 62.8256 247.5 61.5839C247.5 60.3423 247.75 58.6041 248.25 56.3692C248.75 54.1343 249.5 51.4028 250.5 47.9263C251.5 44.6981 252.25 41.7183 253 39.4834C253.75 37.2485 254.5 35.5102 255.25 34.2686C256 33.027 256.75 32.0337 257.75 31.5371C258.75 31.0405 259.75 30.7921 261.25 30.7921C262.25 30.7921 263.25 31.0405 263.75 31.5371C264.25 32.0337 264.75 32.7787 264.75 33.772C264.75 34.7653 264.5 36.2552 264 38.2418L263.75 41.2216Z" fill="#5E4F47"/>
<path d="M158 41.2216H174.75L175.75 37.9934C176.5 35.5102 176.75 33.2753 176.5 31.5371C176.25 29.5505 175.5 28.0606 174.25 26.5707C173 25.0807 171 24.0875 168.5 23.3425C166 22.5975 162.75 22.3492 158.75 22.3492C154.25 22.3492 150.25 22.8459 147 23.5908C143.75 24.5841 140.75 26.074 138.25 28.0606C135.75 30.0472 133.75 32.7787 132 36.0069C130.25 39.235 128.75 43.4565 127.25 48.1746C126 52.8927 125 56.8658 124.75 60.094C124.5 63.3222 125 66.0537 126 68.0403C127.25 70.0269 129.25 71.5168 132 72.5101C134.75 73.5034 138.75 74 143.5 74C146.25 74 149 73.7517 151.75 73.255C154.5 72.7584 157.25 71.7651 159.5 70.5235C162 69.2819 164 67.5436 166 65.3088C167.75 63.0739 169.25 60.094 170.25 56.6175L171.25 52.8927H154.5C153.75 55.1276 153.25 57.1142 152.5 58.8524C152 60.3423 151.25 61.5839 150.75 62.5772C150 63.5705 149.5 64.0672 148.5 64.5638C147.75 65.0604 146.75 65.0604 145.75 65.0604C144.5 65.0604 143.5 64.8121 142.75 64.3155C142 63.8188 141.75 62.8256 141.75 61.5839C141.75 60.3423 142 58.6041 142.5 56.3692C143 54.1343 143.75 51.4028 144.75 47.9263C145.75 44.6981 146.5 41.7183 147.25 39.4834C148 37.2485 148.75 35.5102 149.5 34.2686C150.25 33.027 151 32.0337 152 31.5371C153 31.0405 154 30.7921 155.5 30.7921C156.5 30.7921 157.5 31.0405 158 31.5371C158.5 32.0337 159 32.7787 159 33.772C159 34.7653 158.75 36.2552 158.25 38.2418L158 41.2216Z" fill="#5E4F47"/>
<path d="M219.75 73.2549H203.5L212.25 42.4631L191.75 73.2549H172.75L186.75 23.3424H203.25L194.5 54.1342L214.5 23.3424H234L219.75 73.2549Z" fill="#5E4F47"/>
</svg>
