<svg width="1500" height="16" viewBox="0 0 1500 16" fill="none" xmlns="http://www.w3.org/2000/svg">
<path d="M7.91426 0.103406L15.8285 8.05017L7.91426 15.9969L0 8.05017L7.91426 0.103406Z" fill="#EDD2C0"/>
<path d="M23.5364 0.104172L31.4506 8.05094L23.5364 15.9977L15.6221 8.05094L23.5364 0.104172Z" fill="#EDD2C0"/>
<path d="M39.1593 0.104172L47.0735 8.05094L39.1593 15.9977L31.245 8.05094L39.1593 0.104172Z" fill="#EDD2C0"/>
<path d="M54.7822 0.104172L62.6964 8.05094L54.7822 15.9977L46.8679 8.05094L54.7822 0.104172Z" fill="#EDD2C0"/>
<path d="M70.4035 0.104172L78.3178 8.05094L70.4035 15.9977L62.4893 8.05094L70.4035 0.104172Z" fill="#EDD2C0"/>
<path d="M86.0264 0.104172L93.9407 8.05094L86.0264 15.9977L78.1122 8.05094L86.0264 0.104172Z" fill="#EDD2C0"/>
<path d="M101.651 0.104172L109.566 8.05094L101.651 15.9977L93.7372 8.05094L101.651 0.104172Z" fill="#EDD2C0"/>
<path d="M117.274 0.104938L125.188 8.0517L117.274 15.9985L109.359 8.0517L117.274 0.104938Z" fill="#EDD2C0"/>
<path d="M132.896 0.104938L140.811 8.0517L132.896 15.9985L124.982 8.0517L132.896 0.104938Z" fill="#EDD2C0"/>
<path d="M148.519 0.104938L156.434 8.0517L148.519 15.9985L140.605 8.0517L148.519 0.104938Z" fill="#EDD2C0"/>
<path d="M164.141 0.104938L172.055 8.0517L164.141 15.9985L156.226 8.0517L164.141 0.104938Z" fill="#EDD2C0"/>
<path d="M179.764 0.104938L187.678 8.0517L179.764 15.9985L171.849 8.0517L179.764 0.104938Z" fill="#EDD2C0"/>
<path d="M195.389 0.104172L203.303 8.05094L195.389 15.9977L187.475 8.05094L195.389 0.104172Z" fill="#EDD2C0"/>
<path d="M211.011 0.104938L218.925 8.0517L211.011 15.9985L203.097 8.0517L211.011 0.104938Z" fill="#EDD2C0"/>
<path d="M226.634 0.104938L234.548 8.0517L226.634 15.9985L218.72 8.0517L226.634 0.104938Z" fill="#EDD2C0"/>
<path d="M242.257 0.104938L250.171 8.0517L242.257 15.9985L234.342 8.0517L242.257 0.104938Z" fill="#EDD2C0"/>
<path d="M257.878 0.104938L265.792 8.0517L257.878 15.9985L249.964 8.0517L257.878 0.104938Z" fill="#EDD2C0"/>
<path d="M273.501 0.104938L281.415 8.0517L273.501 15.9985L265.587 8.0517L273.501 0.104938Z" fill="#EDD2C0"/>
<path d="M289.126 0.104938L297.04 8.0517L289.126 15.9985L281.212 8.0517L289.126 0.104938Z" fill="#EDD2C0"/>
<path d="M304.748 0.105704L312.662 8.05247L304.748 15.9992L296.834 8.05247L304.748 0.105704Z" fill="#EDD2C0"/>
<path d="M320.371 0.105704L328.285 8.05247L320.371 15.9992L312.457 8.05247L320.371 0.105704Z" fill="#EDD2C0"/>
<path d="M335.994 0.105704L343.908 8.05247L335.994 15.9992L328.08 8.05247L335.994 0.105704Z" fill="#EDD2C0"/>
<path d="M351.615 0.105704L359.529 8.05247L351.615 15.9992L343.701 8.05247L351.615 0.105704Z" fill="#EDD2C0"/>
<path d="M367.238 0.105704L375.152 8.05247L367.238 15.9992L359.324 8.05247L367.238 0.105704Z" fill="#EDD2C0"/>
<path d="M382.863 0.104172L390.778 8.05094L382.863 15.9977L374.949 8.05094L382.863 0.104172Z" fill="#EDD2C0"/>
<path d="M398.486 0.104938L406.4 8.0517L398.486 15.9985L390.571 8.0517L398.486 0.104938Z" fill="#EDD2C0"/>
<path d="M414.108 0.104938L422.023 8.0517L414.108 15.9985L406.194 8.0517L414.108 0.104938Z" fill="#EDD2C0"/>
<path d="M429.731 0.104938L437.646 8.0517L429.731 15.9985L421.817 8.0517L429.731 0.104938Z" fill="#EDD2C0"/>
<path d="M445.353 0.104938L453.267 8.0517L445.353 15.9985L437.438 8.0517L445.353 0.104938Z" fill="#EDD2C0"/>
<path d="M460.976 0.104938L468.89 8.0517L460.976 15.9985L453.061 8.0517L460.976 0.104938Z" fill="#EDD2C0"/>
<path d="M476.601 0.104938L484.515 8.0517L476.601 15.9985L468.686 8.0517L476.601 0.104938Z" fill="#EDD2C0"/>
<path d="M492.223 0.105704L500.137 8.05247L492.223 15.9992L484.308 8.05247L492.223 0.105704Z" fill="#EDD2C0"/>
<path d="M507.846 0.105704L515.76 8.05247L507.846 15.9992L499.931 8.05247L507.846 0.105704Z" fill="#EDD2C0"/>
<path d="M523.468 0.105704L531.383 8.05247L523.468 15.9992L515.554 8.05247L523.468 0.105704Z" fill="#EDD2C0"/>
<path d="M539.09 0.105704L547.004 8.05247L539.09 15.9992L531.176 8.05247L539.09 0.105704Z" fill="#EDD2C0"/>
<path d="M554.713 0.105704L562.627 8.05247L554.713 15.9992L546.798 8.05247L554.713 0.105704Z" fill="#EDD2C0"/>
<path d="M570.338 0.104938L578.252 8.0517L570.338 15.9985L562.424 8.0517L570.338 0.104938Z" fill="#EDD2C0"/>
<path d="M585.96 0.105704L593.874 8.05247L585.96 15.9992L578.046 8.05247L585.96 0.105704Z" fill="#EDD2C0"/>
<path d="M601.583 0.105704L609.497 8.05247L601.583 15.9992L593.669 8.05247L601.583 0.105704Z" fill="#EDD2C0"/>
<path d="M617.206 0.105704L625.12 8.05247L617.206 15.9992L609.292 8.05247L617.206 0.105704Z" fill="#EDD2C0"/>
<path d="M632.827 0.105704L640.741 8.05247L632.827 15.9992L624.913 8.05247L632.827 0.105704Z" fill="#EDD2C0"/>
<path d="M648.45 0.105704L656.364 8.05247L648.45 15.9992L640.536 8.05247L648.45 0.105704Z" fill="#EDD2C0"/>
<path d="M664.075 0.105704L671.989 8.05247L664.075 15.9992L656.161 8.05247L664.075 0.105704Z" fill="#EDD2C0"/>
<path d="M679.697 0.10647L687.611 8.05324L679.697 16L671.783 8.05324L679.697 0.10647Z" fill="#EDD2C0"/>
<path d="M695.32 0.10647L703.234 8.05324L695.32 16L687.406 8.05324L695.32 0.10647Z" fill="#EDD2C0"/>
<path d="M710.943 0.10647L718.857 8.05324L710.943 16L703.029 8.05324L710.943 0.10647Z" fill="#EDD2C0"/>
<path d="M726.564 0.10647L734.479 8.05324L726.564 16L718.65 8.05324L726.564 0.10647Z" fill="#EDD2C0"/>
<path d="M742.187 0.10647L750.102 8.05324L742.187 16L734.273 8.05324L742.187 0.10647Z" fill="#EDD2C0"/>
<path d="M757.813 0L765.727 7.94677L757.813 15.8935L749.898 7.94677L757.813 0Z" fill="#EDD2C0"/>
<path d="M773.435 0.00076597L781.349 7.94753L773.435 15.8943L765.521 7.94753L773.435 0.00076597Z" fill="#EDD2C0"/>
<path d="M789.058 0.00076597L796.972 7.94753L789.058 15.8943L781.143 7.94753L789.058 0.00076597Z" fill="#EDD2C0"/>
<path d="M804.681 0.00076597L812.595 7.94753L804.681 15.8943L796.766 7.94753L804.681 0.00076597Z" fill="#EDD2C0"/>
<path d="M820.302 0.00076597L828.216 7.94753L820.302 15.8943L812.388 7.94753L820.302 0.00076597Z" fill="#EDD2C0"/>
<path d="M835.925 0.00076597L843.839 7.94753L835.925 15.8943L828.011 7.94753L835.925 0.00076597Z" fill="#EDD2C0"/>
<path d="M851.55 0.00076597L859.464 7.94753L851.55 15.8943L843.636 7.94753L851.55 0.00076597Z" fill="#EDD2C0"/>
<path d="M867.172 0.00153194L875.086 7.9483L867.172 15.8951L859.258 7.9483L867.172 0.00153194Z" fill="#EDD2C0"/>
<path d="M882.795 0.00153194L890.709 7.9483L882.795 15.8951L874.881 7.9483L882.795 0.00153194Z" fill="#EDD2C0"/>
<path d="M898.418 0.00153194L906.332 7.9483L898.418 15.8951L890.504 7.9483L898.418 0.00153194Z" fill="#EDD2C0"/>
<path d="M914.039 0.00153194L921.953 7.9483L914.039 15.8951L906.125 7.9483L914.039 0.00153194Z" fill="#EDD2C0"/>
<path d="M929.662 0.00153194L937.576 7.9483L929.662 15.8951L921.748 7.9483L929.662 0.00153194Z" fill="#EDD2C0"/>
<path d="M945.287 0.00076597L953.202 7.94753L945.287 15.8943L937.373 7.94753L945.287 0.00076597Z" fill="#EDD2C0"/>
<path d="M960.909 0.00153194L968.824 7.9483L960.909 15.8951L952.995 7.9483L960.909 0.00153194Z" fill="#EDD2C0"/>
<path d="M976.532 0.00153194L984.447 7.9483L976.532 15.8951L968.618 7.9483L976.532 0.00153194Z" fill="#EDD2C0"/>
<path d="M992.155 0.00153194L1000.07 7.9483L992.155 15.8951L984.241 7.9483L992.155 0.00153194Z" fill="#EDD2C0"/>
<path d="M1007.78 0.00153194L1015.69 7.9483L1007.78 15.8951L999.862 7.9483L1007.78 0.00153194Z" fill="#EDD2C0"/>
<path d="M1023.4 0.00153194L1031.31 7.9483L1023.4 15.8951L1015.49 7.9483L1023.4 0.00153194Z" fill="#EDD2C0"/>
<path d="M1039.02 0.00153194L1046.94 7.9483L1039.02 15.8951L1031.11 7.9483L1039.02 0.00153194Z" fill="#EDD2C0"/>
<path d="M1054.65 0.00229791L1062.56 7.94906L1054.65 15.8958L1046.73 7.94906L1054.65 0.00229791Z" fill="#EDD2C0"/>
<path d="M1070.27 0.00229791L1078.18 7.94906L1070.27 15.8958L1062.36 7.94906L1070.27 0.00229791Z" fill="#EDD2C0"/>
<path d="M1085.89 0.00229791L1093.81 7.94906L1085.89 15.8958L1077.98 7.94906L1085.89 0.00229791Z" fill="#EDD2C0"/>
<path d="M1101.51 0.00229791L1109.43 7.94906L1101.51 15.8958L1093.6 7.94906L1101.51 0.00229791Z" fill="#EDD2C0"/>
<path d="M1117.14 0.00229791L1125.05 7.94906L1117.14 15.8958L1109.22 7.94906L1117.14 0.00229791Z" fill="#EDD2C0"/>
<path d="M1132.76 0.00076597L1140.68 7.94753L1132.76 15.8943L1124.85 7.94753L1132.76 0.00076597Z" fill="#EDD2C0"/>
<path d="M1148.38 0.00153194L1156.3 7.9483L1148.38 15.8951L1140.47 7.9483L1148.38 0.00153194Z" fill="#EDD2C0"/>
<path d="M1164.01 0.00153194L1171.92 7.9483L1164.01 15.8951L1156.09 7.9483L1164.01 0.00153194Z" fill="#EDD2C0"/>
<path d="M1179.63 0.00153194L1187.54 7.9483L1179.63 15.8951L1171.72 7.9483L1179.63 0.00153194Z" fill="#EDD2C0"/>
<path d="M1195.25 0.00153194L1203.17 7.9483L1195.25 15.8951L1187.34 7.9483L1195.25 0.00153194Z" fill="#EDD2C0"/>
<path d="M1210.87 0.00153194L1218.79 7.9483L1210.87 15.8951L1202.96 7.9483L1210.87 0.00153194Z" fill="#EDD2C0"/>
<path d="M1226.5 0.00153194L1234.41 7.9483L1226.5 15.8951L1218.58 7.9483L1226.5 0.00153194Z" fill="#EDD2C0"/>
<path d="M1242.12 0.00229791L1250.04 7.94906L1242.12 15.8958L1234.21 7.94906L1242.12 0.00229791Z" fill="#EDD2C0"/>
<path d="M1257.74 0.00229791L1265.66 7.94906L1257.74 15.8958L1249.83 7.94906L1257.74 0.00229791Z" fill="#EDD2C0"/>
<path d="M1273.37 0.00229791L1281.28 7.94906L1273.37 15.8958L1265.45 7.94906L1273.37 0.00229791Z" fill="#EDD2C0"/>
<path d="M1288.99 0.00229791L1296.9 7.94906L1288.99 15.8958L1281.07 7.94906L1288.99 0.00229791Z" fill="#EDD2C0"/>
<path d="M1304.61 0.00229791L1312.53 7.94906L1304.61 15.8958L1296.7 7.94906L1304.61 0.00229791Z" fill="#EDD2C0"/>
<path d="M1320.24 0.00153194L1328.15 7.9483L1320.24 15.8951L1312.32 7.9483L1320.24 0.00153194Z" fill="#EDD2C0"/>
<path d="M1335.86 0.00229791L1343.77 7.94906L1335.86 15.8958L1327.94 7.94906L1335.86 0.00229791Z" fill="#EDD2C0"/>
<path d="M1351.48 0.00229791L1359.4 7.94906L1351.48 15.8958L1343.57 7.94906L1351.48 0.00229791Z" fill="#EDD2C0"/>
<path d="M1367.1 0.00229791L1375.02 7.94906L1367.1 15.8958L1359.19 7.94906L1367.1 0.00229791Z" fill="#EDD2C0"/>
<path d="M1382.73 0.00229791L1390.64 7.94906L1382.73 15.8958L1374.81 7.94906L1382.73 0.00229791Z" fill="#EDD2C0"/>
<path d="M1398.35 0.00229791L1406.26 7.94906L1398.35 15.8958L1390.43 7.94906L1398.35 0.00229791Z" fill="#EDD2C0"/>
<path d="M1413.97 0.00229791L1421.89 7.94906L1413.97 15.8958L1406.06 7.94906L1413.97 0.00229791Z" fill="#EDD2C0"/>
<path d="M1429.6 0.00306388L1437.51 7.94983L1429.6 15.8966L1421.68 7.94983L1429.6 0.00306388Z" fill="#EDD2C0"/>
<path d="M1445.22 0.00306388L1453.13 7.94983L1445.22 15.8966L1437.3 7.94983L1445.22 0.00306388Z" fill="#EDD2C0"/>
<path d="M1460.84 0.00306388L1468.76 7.94983L1460.84 15.8966L1452.93 7.94983L1460.84 0.00306388Z" fill="#EDD2C0"/>
<path d="M1476.46 0.00306388L1484.38 7.94983L1476.46 15.8966L1468.55 7.94983L1476.46 0.00306388Z" fill="#EDD2C0"/>
<path d="M1492.09 0.00306388L1500 7.94983L1492.09 15.8966L1484.17 7.94983L1492.09 0.00306388Z" fill="#EDD2C0"/>
</svg>
