<svg width="51" height="94" viewBox="0 0 51 94" fill="none" xmlns="http://www.w3.org/2000/svg">
<g clip-path="url(#clip0_1_211)">
<path d="M43.9991 59.6152C39.3846 58.7918 35.1617 56.6151 30.6025 55.5798C33.7785 51.9089 38.112 49.1142 41.0608 45.2627C42.0411 44.3954 43.0636 43.5654 44.1522 42.8201C44.8105 42.3717 44.7035 41.3252 43.9799 41.0058C42.2576 40.2422 40.4904 39.6177 38.7132 39.0251C37.1506 38.3203 35.5791 37.6251 34.0045 36.9468C31.5483 35.8865 28.916 34.7235 26.2548 33.9347C25.9473 33.7404 25.6396 33.5369 25.339 33.3276C29.7574 29.3639 33.7753 24.8403 38.7064 21.5104C38.8976 21.62 39.1198 21.6616 39.3357 21.6366C39.4214 21.6983 39.5074 21.7692 39.5979 21.8604C39.6113 21.871 39.6312 21.8573 39.625 21.8408C39.6031 21.7989 39.5572 21.7097 39.5051 21.6041C39.9823 21.4744 40.3427 21.0411 40.0642 20.4726C38.6531 17.581 34.9107 15.5176 32.3145 13.8743C29.3102 11.9682 26.023 10.0842 22.5425 9.24694C22.2957 9.18959 22.1287 9.33707 22.0652 9.52698C21.9734 9.44883 21.873 9.38958 21.753 9.35335C21.7379 9.3465 21.7218 9.36197 21.7335 9.37637C22.5891 10.5668 21.3562 13.3427 20.9644 14.4863C19.9574 17.4558 18.7294 20.3615 17.4759 23.2328C15.2617 28.311 12.789 33.2672 10.4729 38.2991C10.3117 38.6543 10.485 39.0337 10.812 39.2049C16.0789 41.9467 22.1311 42.4977 27.4642 45.0736C26.7993 45.8973 26.1807 46.7693 25.4849 47.5608C24.3053 48.9072 23.0475 50.1954 21.8162 51.4956C19.4234 54.032 16.9247 56.4611 14.695 59.1491C14.2709 59.6628 14.5311 60.6422 15.2705 60.6862C20.2457 60.9853 25.3206 62.7377 29.9097 64.6887C27.783 68.0112 25.2804 71.1904 22.9765 74.3824C20.6884 77.5496 18.4744 80.7641 16.1863 83.9313C15.0289 85.5294 13.4761 86.6563 12.1624 88.0877L12.2087 87.9857C12.219 87.963 12.1851 87.9476 12.1748 87.9703L12.0822 88.1743C12.0804 88.1781 12.0804 88.1781 12.075 88.1801C11.9488 88.2778 11.8264 88.3772 11.7002 88.4748C11.5596 88.5842 11.5654 88.7417 11.638 88.8521C11.5999 89.2267 12.126 89.3197 12.63 89.1612C12.7839 89.1126 12.7233 88.8755 12.5663 88.8908C12.3023 88.9213 12.2225 88.8668 12.2414 88.7752C23.7332 80.8593 34.3143 71.4637 43.8546 61.2857C44.8178 61.3174 45.0178 59.7951 43.9991 59.6152ZM27.2672 75.6785C25.2972 76.6525 23.3163 77.7309 21.7989 79.2704C21.7149 79.3552 21.8479 79.4931 21.9398 79.4209C23.4594 78.247 24.9954 77.2172 26.6027 76.2609C23.2922 79.1462 19.9121 81.9544 16.4816 84.7033C17.5501 83.4112 18.4662 81.9542 19.4048 80.6077C21.305 77.8842 23.3424 75.2593 25.2806 72.5621C27.0742 70.0635 28.7444 67.3358 30.7779 65.0099C31.6506 65.1008 32.1563 63.7765 31.2268 63.35C29.9446 62.7588 28.6092 62.1845 27.2402 61.6542C28.268 61.3234 29.2051 60.6414 29.9221 59.8733C29.9845 59.8059 29.8776 59.721 29.8131 59.7828C28.9483 60.6661 27.9729 61.1621 26.8454 61.5023C24.9092 60.7692 22.9112 60.122 20.8954 59.6443C22.7578 58.4164 24.8481 57.4879 26.9215 56.7568C26.9435 56.7486 26.9329 56.7119 26.9092 56.7239C24.7079 57.6066 22.5045 58.3334 20.531 59.5655C19.4636 59.3225 18.3924 59.1278 17.3254 58.9943C19.3458 56.6671 21.4828 54.4337 23.5262 52.126C25.1673 50.2737 27.3349 47.913 28.39 45.4483C29.0095 45.4561 29.369 44.5439 28.8467 44.1017C28.8563 44.0605 28.8697 44.021 28.8776 43.9836C28.9208 43.7982 28.6812 43.735 28.5722 43.845C28.5489 43.8663 28.5293 43.8893 28.5098 43.9123C27.3938 43.3556 26.2408 42.9006 25.0709 42.4926C26.1019 41.9444 27.0314 41.2089 28.1234 40.7568C28.2074 40.722 28.1601 40.5958 28.074 40.6251C26.953 41.0412 25.7033 41.6404 24.7368 42.3773C22.5088 41.6257 20.2171 41.0547 17.9538 40.4009C20.2045 39.5999 22.212 38.1827 24.4277 37.2884C24.4496 37.2801 24.4373 37.2472 24.4154 37.2554C22.139 38.1131 19.9862 39.3094 17.755 40.2879C17.7331 40.2962 17.7245 40.3151 17.7138 40.3285C15.7652 39.7629 13.842 39.1313 12.0062 38.257C12.2813 37.671 12.6861 36.8295 13.1783 35.7952C17.6388 32.2198 22.493 29.2697 27.0316 25.8026C27.0515 25.7888 27.0282 25.76 27.0121 25.7755C22.6339 29.0192 17.5043 31.4844 13.473 35.1862C16.8033 28.1404 23.3806 13.8515 22.4229 10.1815C27.9031 12.8742 33.7262 16.1237 37.8894 20.6656C35.1939 21.2647 32.2972 23.6589 30.446 25.1927C28.3428 26.931 25.812 29.0903 24.2457 31.569C24.0626 31.732 23.8812 31.8911 23.696 32.0486C23.6902 32.0414 23.6789 32.0363 23.6731 32.0291C23.6463 32.0078 23.6066 32.0353 23.6189 32.0683C23.623 32.0792 23.6309 32.0919 23.6333 32.1067C23.5723 32.161 23.5112 32.2153 23.4519 32.2659C23.1409 32.5302 23.0424 32.8774 23.0821 33.2007C23.0691 33.1994 23.056 33.198 23.0447 33.1929C22.6831 33.1381 22.5547 33.6312 22.8646 33.7901C22.9797 33.8469 23.0966 33.8999 23.2063 33.9588C23.2844 34.2677 23.622 34.4255 23.9123 34.3067C24.5783 34.6227 25.2528 34.9198 25.9346 35.211C27.642 36.5785 29.8856 37.5058 31.6741 38.304C34.8664 39.7259 38.1816 40.8571 41.4079 42.1941C39.0908 43.9128 36.946 45.9329 35.7345 48.5317C35.3374 48.8755 34.9424 49.2247 34.5454 49.5685C29.8061 51.1036 24.0705 53.5214 21.1551 57.5796C21.0475 57.7266 21.2462 57.8898 21.3693 57.7588C24.9715 53.9806 29.4804 51.4706 34.3568 49.7335C32.4188 51.4284 30.5117 53.1554 28.8684 55.1526C28.2776 55.8732 29.2114 56.7711 29.8789 56.3723C29.917 56.3987 29.955 56.4251 30.002 56.4419C34.2001 57.8919 38.1896 60.0219 42.5291 61.0303C37.6904 66.1702 32.5669 71.0258 27.2672 75.6785Z" fill="#5E4F47" stroke="#5E4F47" stroke-width="0.3"/>
<path d="M20.9784 20.0742C22.4917 19.4852 23.918 18.6472 25.4165 18.0106C26.853 17.4004 28.298 16.8215 29.6982 16.1311C29.7565 16.1029 29.7233 16.0058 29.6612 16.0323C26.8441 17.3098 23.3522 17.9803 20.8808 19.8886C20.7872 19.9646 20.867 20.1193 20.9784 20.0742Z" fill="#5E4F47" stroke="#5E4F47" stroke-width="0.3"/>
<path d="M30.1919 20.6752C26.3304 23.9028 21.747 25.6453 17.2935 27.8432C17.1714 27.9017 17.2396 28.0922 17.3674 28.0408C21.8929 26.2356 26.5124 23.9125 30.219 20.7057C30.2313 20.6886 30.2118 20.6615 30.1919 20.6752Z" fill="#5E4F47" stroke="#5E4F47" stroke-width="0.3"/>
<path d="M27.5391 47.925C29.9738 46.2779 32.6287 45.1273 35.3512 44.0483C35.4571 44.0053 35.3975 43.8461 35.2895 43.8836C32.5743 44.8565 29.59 45.7711 27.3983 47.7244C27.2834 47.8271 27.4071 48.0154 27.5391 47.925Z" fill="#5E4F47" stroke="#5E4F47" stroke-width="0.3"/>
<path d="M30.1936 67.0273C32.1186 65.3311 34.211 64.2577 36.7608 63.8796C36.829 63.8696 36.816 63.768 36.7495 63.7742C34.3348 64.0451 31.6306 64.9136 30.0257 66.8463C29.9407 66.9535 30.0877 67.1205 30.1936 67.0273Z" fill="#5E4F47" stroke="#5E4F47" stroke-width="0.3"/>
<path d="M31.9003 67.7057C29.8983 69.2712 27.5399 70.4699 25.8188 72.368C25.744 72.4525 25.8739 72.5571 25.9545 72.4797C27.7983 70.692 29.9713 69.3909 31.9627 67.7887C32.0131 67.7478 31.9525 67.661 31.9003 67.7057Z" fill="#5E4F47" stroke="#5E4F47" stroke-width="0.3"/>
</g>
<defs>
<clipPath id="clip0_1_211">
<rect width="51" height="94" fill="white"/>
</clipPath>
</defs>
</svg>
