<svg width="59" height="63" viewBox="0 0 59 63" fill="none" xmlns="http://www.w3.org/2000/svg">
<g clip-path="url(#clip0_1_198)">
<path d="M55.3112 41.6988C52.8503 41.5086 50.3521 41.5773 47.8804 41.4611C45.2706 41.3396 42.6661 41.1653 40.0616 41.0173C34.8367 40.7162 29.532 40.4045 24.3017 40.806C20.2621 41.1177 16.249 41.7147 12.204 41.963C8.67999 42.1743 4.78387 42.1268 1.42459 40.8483C1.44585 40.8271 1.46711 40.806 1.48837 40.7796C2.23251 39.7124 2.03585 38.4128 2.09432 37.1554C2.16873 35.5388 2.20062 33.917 2.27504 32.3003C2.4345 28.8453 2.65242 25.3902 2.86504 21.9403C3.29026 14.9615 3.91747 7.7977 3.31684 0.808271C6.00639 2.89506 9.70053 3.33884 13.0067 3.61884C17.4131 3.99393 21.8939 3.61355 26.2896 3.27016C31.0894 2.89506 35.82 2.79997 40.6357 2.99544C43.5431 3.11167 46.4506 3.25431 49.3581 3.29129C50.7029 3.31242 52.0476 3.29657 53.3977 3.25431C54.7212 3.21204 56.1458 3.23318 57.4055 2.78412C58.0593 2.55167 57.9051 1.70638 57.246 1.62714C55.9757 1.47393 54.6681 1.69582 53.3924 1.74865C52.0476 1.80676 50.7029 1.81204 49.3528 1.80148C46.5835 1.78035 43.8142 1.65355 41.0449 1.54261C36.3834 1.36299 31.7857 1.3894 27.1348 1.77506C22.9622 2.12374 18.7844 2.41959 14.5906 2.33506C10.7955 2.26638 6.63359 2.03921 3.29026 0.0422333C3.00855 -0.132106 2.679 0.279969 2.93414 0.501856C2.9554 0.517705 2.97666 0.533554 2.9926 0.549403C2.31224 7.65506 1.98269 14.8136 1.44053 21.9351C1.18008 25.3902 0.909 28.84 0.696388 32.2951C0.600712 33.8007 0.520982 35.3117 0.457199 36.8226C0.404045 38.0747 0.180802 39.5011 0.829271 40.6053C0.675126 40.5366 0.520982 40.4732 0.372154 40.4045C0.0744959 40.2619 -0.148747 40.6475 0.117018 40.8377C3.22648 43.0724 7.06413 43.4581 10.7955 43.4951C15.0212 43.532 19.2043 42.8928 23.4034 42.5177C28.6337 42.0475 33.9543 42.3592 39.1846 42.6709C39.3122 42.6762 39.4344 42.6868 39.562 42.692C39.4078 44.0075 39.3334 45.3071 39.2909 46.6385C39.2484 48.012 39.0995 49.4332 39.174 50.812C38.5149 50.886 37.9302 51.129 37.2179 51.2875C35.8678 51.5939 34.4593 51.7154 33.0826 51.7736C31.7113 51.8317 30.3293 51.7788 28.9685 51.5939C28.6922 51.557 28.4051 51.52 28.1128 51.483C29.1014 51.4143 30.0635 51.0339 30.7651 50.3102C30.8821 50.1939 30.712 50.0302 30.5844 50.1305C29.4363 51.0762 27.7939 51.4724 26.3481 51.0973C26.3056 51.0868 26.2737 51.1079 26.2577 51.1343C26.0079 51.0656 25.7634 50.9864 25.5295 50.886C25.2053 50.7486 24.8067 51.1396 25.1203 51.4143C27.2411 53.2739 30.3877 53.4166 33.0826 53.4641C34.6347 53.4958 36.1867 53.3796 37.7016 53.0256C37.8292 52.9939 37.9567 52.9622 38.0896 52.9305C37.6644 53.7441 37.3295 54.6053 37.2126 55.5139C37.0691 56.6022 36.697 58.446 37.7494 59.1434C37.9142 59.2543 38.1056 59.1645 38.2119 59.0219C38.4139 58.7471 38.5202 58.5992 38.4723 58.2558C38.3607 57.4739 38.3501 56.7079 38.4032 55.9207C38.4776 54.806 38.6903 53.6913 39.0304 52.6241C39.4557 52.4339 39.8224 52.1751 40.0403 51.7683C40.2742 51.6996 40.4762 51.4988 40.5028 51.1713C40.5081 51.0868 40.5134 51.0022 40.5187 50.9177C41.5605 50.4634 42.5332 50.12 43.7558 50.1147C45.3503 50.1094 46.9184 50.7169 48.2897 51.483C49.289 52.0377 50.2511 52.7615 51.0856 53.612C51.0058 54.209 50.9367 54.8007 50.9261 55.4136C50.9155 56.3698 50.8995 57.3207 50.8889 58.277C50.8836 58.7788 50.7241 59.529 50.9952 59.9887C50.2883 60.2951 49.5707 60.5698 48.8106 60.7494C48.2366 60.8868 47.6572 60.9713 47.0672 61.0294C47.5137 60.0415 47.2851 58.8792 47.2585 57.8173C47.2267 56.5494 47.1735 55.3132 47.0087 54.0505C46.9449 53.5381 46.2699 53.5381 46.2061 54.0505C46.0467 55.3079 45.9882 56.5494 45.9563 57.8173C45.9297 58.8845 45.7012 60.0468 46.1476 61.0347C46.1583 61.0558 46.1742 61.0717 46.1902 61.0928C45.4779 61.1298 44.7603 61.1351 44.0534 61.1298C43.7185 61.1245 43.3784 61.1192 43.0435 61.1086C43.0382 60.8551 43.0329 60.6015 43.0116 60.3426C42.9319 59.3283 42.9691 58.3034 43.001 57.289C43.0754 55.2022 43.2349 53.1947 42.9212 51.1185C42.8947 50.9336 42.5864 50.9388 42.5545 51.1185C42.1984 53.2951 41.922 55.4453 41.7412 57.6483C41.6509 58.7683 41.5074 59.9517 41.6987 61.0453C39.0623 60.892 36.4313 60.5381 33.8161 60.2317C33.3537 60.1788 32.8913 60.1313 32.4288 60.0837C32.466 60.0415 32.4979 59.9834 32.5192 59.92C33.1411 58.0656 33.4494 55.9947 33.2686 54.0453C33.2474 53.797 32.9178 53.8075 32.8913 54.0453C32.6414 55.963 32.0302 57.7962 31.7059 59.6928C31.6847 59.8249 31.7113 59.9358 31.7697 60.0203C30.9033 59.9464 30.0369 59.8777 29.1705 59.8302C28.7187 57.9653 28.9632 55.9366 29.3566 54.0822C29.3885 53.9237 29.1705 53.8181 29.0855 53.9713C28.1606 55.609 27.6238 57.9705 28.352 59.7879C27.1613 59.7298 25.976 59.6875 24.7854 59.6611C25.1043 58.5253 24.9608 57.157 25.099 55.9894C25.2531 54.7003 25.4392 53.4166 25.604 52.1275C25.6412 51.8422 25.1787 51.7947 25.1043 52.0588C24.7535 53.3215 24.4346 54.5736 24.2326 55.8679C24.0519 57.0249 23.7117 58.4671 23.9881 59.64C23.0792 59.6241 22.1756 59.6083 21.272 59.5977C21.171 59.5977 21.07 59.5977 20.9743 59.5977C21.1657 58.5569 21.1019 57.4422 21.2188 56.3856C21.373 54.9856 21.5377 53.5856 21.7397 52.1909C21.7822 51.8792 21.3358 51.7313 21.2507 52.0588C20.9212 53.3162 20.581 54.5788 20.3524 55.8626C20.1451 57.0354 19.9059 58.3985 20.0867 59.5977C19.0502 59.603 18.0137 59.6294 16.9772 59.6664C17.126 58.8475 16.7805 57.7962 16.7433 56.9932C16.6902 55.6988 16.7646 54.3675 16.8922 53.0837C16.9187 52.8196 16.5041 52.7773 16.435 53.0203C16.063 54.3411 15.8822 55.6196 15.8557 56.9932C15.8397 57.7328 15.7547 58.9743 16.2065 59.6928C15.4092 59.7245 14.6119 59.7615 13.8146 59.7985C11.7576 59.8936 9.53576 59.8407 7.55314 60.48C7.68071 60.052 7.62224 59.5502 7.64882 59.1011C7.70197 58.2136 8.00495 57.3577 8.43549 56.5917C8.6481 56.2113 8.90323 55.8573 9.19026 55.5351C9.07332 57.1992 9.3763 58.969 10.8008 59.5502C11.0187 59.64 11.1888 59.3124 11.0294 59.1645C10.5616 58.7366 10.45 57.5849 10.3277 56.972C10.1789 56.2219 10.147 55.4347 10.1417 54.6475C10.7955 54.1298 11.529 53.6966 12.2678 53.332C12.8631 53.0362 13.4797 52.7879 14.1122 52.5713C13.9847 52.7456 13.8677 52.9305 13.7508 53.0732C13.7349 53.0943 13.7614 53.1207 13.7827 53.1049C13.9422 52.9411 14.0963 52.772 14.2504 52.603C14.1388 52.7298 14.0485 52.8302 13.9156 53.0151C13.5488 53.5222 13.3575 54.1245 13.2352 54.7268C12.9588 56.0686 13.1449 57.4898 13.1342 58.8475C13.1289 59.6611 14.4258 59.6611 14.3993 58.8475C14.3408 56.766 13.9794 54.7056 15.0743 52.8037C15.17 52.64 15.1275 52.4656 15.0105 52.323C14.9999 52.3124 14.9946 52.3019 14.984 52.2913C17.918 51.446 21.1125 51.3034 24.1104 51.3298C24.1529 51.3615 24.1954 51.3932 24.2432 51.4196C24.4824 51.557 24.7216 51.3298 24.6791 51.0868C24.4558 49.8453 23.8924 48.7834 23.818 47.4837C23.7649 46.4905 23.834 45.492 24.1582 44.5675C24.1954 44.6468 24.2698 44.7102 24.3921 44.7154C25.4339 44.7524 26.4757 44.7894 27.5122 44.8264C28.4051 44.8581 29.4044 44.9849 30.2549 44.689C30.494 44.6045 30.494 44.2875 30.2549 44.203C29.4044 43.9071 28.4051 44.0339 27.5122 44.0656C26.4704 44.1026 25.4339 44.1396 24.3921 44.1766C24.3602 44.1766 24.3389 44.1871 24.3123 44.1977C24.3974 44.0022 24.4931 43.8068 24.61 43.6166C24.7535 43.3788 24.3921 43.083 24.2113 43.3102C23.2652 44.4936 22.84 45.9886 22.7922 47.489C22.7603 48.5562 22.9038 49.9615 23.6001 50.8596C19.4222 50.1834 14.9149 50.5796 11.1197 52.492C10.7742 52.6664 10.4447 52.8619 10.1258 53.0679C10.0992 52.8249 9.75368 52.7879 9.67395 53.0256C9.62612 53.163 9.58359 53.3162 9.54107 53.4747C8.58432 54.1985 7.75513 55.086 7.15981 56.1268C6.54855 57.1939 5.44828 60.2105 6.83026 61.0558C6.96314 61.1351 7.13323 61.1087 7.23954 61.003C7.26612 60.9766 7.28738 60.9554 7.30864 60.929C9.4135 61.4151 11.6725 61.1562 13.8146 61.1456C16.4457 61.1298 19.0767 61.2143 21.7131 61.2407C26.0345 61.2883 30.3505 61.452 34.6453 61.9645C37.2126 62.2709 39.7905 62.5879 42.3791 62.7094C42.411 62.757 42.4429 62.8045 42.4748 62.8468C42.6395 63.0581 43.0276 63.0369 43.0594 62.7358C43.8886 62.7622 44.7178 62.7728 45.547 62.7517C47.8645 62.683 51.8882 62.4981 52.8184 59.92C52.9566 59.5396 52.4994 59.3071 52.1965 59.4445C52.1433 59.4709 52.0849 59.4973 52.0317 59.5185C52.0849 59.1011 51.9998 58.6203 51.9945 58.2664C51.9839 57.3102 51.9679 56.3592 51.9573 55.403C51.952 55.1124 51.936 54.8219 51.9095 54.5366C52.4357 55.2075 52.8768 55.9419 53.2011 56.7185C53.1532 57.1464 53.1213 57.569 53.1213 58.0075C53.1213 58.6098 53.031 59.2754 53.2117 59.8513C53.2595 60.0098 53.4881 60.0098 53.5359 59.8513C53.7113 59.2807 53.6316 58.6362 53.6263 58.0445C53.6848 58.3087 53.7379 58.5781 53.7698 58.8475C53.8495 59.5607 54.9711 59.5819 54.9073 58.8475C54.7106 56.4437 53.419 54.3358 51.6703 52.6981C51.6224 52.3494 51.5799 52.0007 51.548 51.6468C51.5374 51.5094 51.346 51.5094 51.3354 51.6468C51.3141 51.8792 51.2876 52.1064 51.261 52.3336C50.4212 51.6098 49.4963 50.9917 48.5502 50.4898C46.4772 49.3909 42.5545 48.403 40.5453 50.1992C40.5506 49.1585 40.4603 48.1071 40.4284 47.077C40.3805 45.6083 40.3167 44.1713 40.1467 42.7132C42.4322 42.8558 44.7231 43.0037 47.0087 43.1358C49.7408 43.289 52.5739 43.569 55.3059 43.3683C56.3956 43.2996 56.3956 41.7834 55.3112 41.6988Z" fill="#37302C" stroke="black" stroke-width="0.3"/>
<path d="M58.8086 23.2558C58.6492 19.88 58.3728 16.5147 58.1283 13.1494C57.8891 9.8264 57.7828 6.49282 57.4957 3.17508C57.4692 2.85282 57.0174 2.84753 56.9908 3.17508C56.725 6.34489 56.9004 9.53583 57.028 12.7109C57.1662 16.0815 57.3416 19.4521 57.4904 22.8173C57.6286 26.0136 57.6818 29.2098 57.5861 32.406C57.4851 35.766 57.012 39.0256 56.5496 42.3487C56.4274 43.2309 57.7137 43.6483 57.9316 42.729C58.6704 39.6702 58.8299 36.4 58.9415 33.2672C59.0691 29.9336 58.9681 26.5894 58.8086 23.2558Z" fill="#37302C" stroke="black" stroke-width="0.3"/>
<path d="M51.4469 33.9751C51.3459 33.9751 51.2502 33.9751 51.1493 33.9751C51.1067 29.7856 50.8941 25.6015 50.7719 21.4173C50.7081 19.2196 50.5858 17.0271 50.5699 14.8241C50.5486 12.5419 50.7187 10.2543 50.5433 7.97733C50.538 7.90865 50.4423 7.89281 50.4211 7.96148C49.1879 12.0664 49.459 16.7366 49.459 20.9788C49.459 25.3109 49.7566 29.6377 49.7992 33.9698C42.7936 33.8853 35.7986 33.3675 28.793 33.32C25.0032 33.2936 21.24 33.4415 17.4767 33.9222C14.447 34.3079 11.4385 34.8679 8.64799 36.1147C8.69583 33.9909 8.53105 31.846 8.56826 29.7222C8.6161 27.1705 8.74367 24.6241 8.88186 22.083C9.12637 17.5977 9.47718 12.9909 9.16889 8.48979C11.0665 9.90564 13.4211 10.0853 15.7652 10.1222C18.9225 10.1698 22.0426 9.65733 25.1627 9.21356C28.0755 8.7962 31.0042 8.66413 33.9383 8.62715C35.9421 8.73281 37.9513 8.80677 39.9605 8.74337C40.3751 8.72752 40.8056 8.71696 41.2468 8.69582C41.7996 8.70639 42.3577 8.72224 42.9105 8.73281C45.0845 8.78564 47.3541 9.00224 49.5175 8.7962C50.5805 8.69582 50.5752 7.26413 49.5175 7.15847C48.6192 7.06865 47.7049 7.04752 46.7854 7.04752C46.8013 6.93658 46.6897 6.8045 46.5728 6.85733C46.408 6.92601 46.2432 6.98941 46.0784 7.04752C45.3184 7.05281 44.5583 7.05809 43.8088 7.04224C41.6986 6.99998 39.5884 6.94714 37.4783 6.92601C33.715 6.88375 29.9199 6.87847 26.1832 7.38035C25.8377 7.4279 25.4922 7.47545 25.1467 7.52299C23.6106 7.4596 22.0745 7.36979 20.5384 7.20601C16.6794 6.79394 12.8365 6.0279 8.94565 6.01733C8.89781 6.01733 8.88718 6.0913 8.93502 6.10186C12.7833 6.75696 16.6635 7.30111 20.5384 7.78186C21.0593 7.84526 21.5855 7.89809 22.1064 7.95092C20.5437 8.16752 18.981 8.36828 17.4076 8.5162C14.7606 8.7645 11.6193 8.85431 9.12105 7.78715C9.09979 7.53356 9.07853 7.27998 9.05195 7.02639C9.03601 6.88903 8.85529 6.88903 8.83934 7.02639C8.80745 7.29582 8.78619 7.56526 8.7543 7.83469C8.67988 7.90865 8.65331 8.0196 8.72772 8.11469C8.25997 12.7532 7.98358 17.4392 7.66997 22.0883C7.49988 24.6347 7.35105 27.1811 7.26069 29.7275C7.18096 32.0996 7.01087 34.6038 7.34574 36.96C7.44141 37.6468 8.38754 37.5147 8.58952 36.9705C22.7283 33.7796 37.1115 35.7238 51.4469 35.7449C52.5897 35.7396 52.5897 33.9804 51.4469 33.9751Z" fill="#37302C" stroke="black" stroke-width="0.3"/>
<path d="M30.2495 47.1404C29.3937 46.8498 28.4157 47.0136 27.5174 47.0294C26.4756 47.0506 25.4391 47.1351 24.3973 47.2143C24.2325 47.2249 24.2325 47.4521 24.3973 47.4679C25.4391 47.5472 26.4756 47.6317 27.5174 47.6528C28.4157 47.6687 29.3937 47.8377 30.2495 47.5419C30.4515 47.4732 30.4515 47.209 30.2495 47.1404Z" fill="#37302C" stroke="black" stroke-width="0.3"/>
<path d="M30.191 49.0739C29.4309 49.1426 28.6974 49.4649 27.9426 49.6234C26.7733 49.8664 25.5082 49.7026 24.4664 49.1373C24.2963 49.0422 24.1581 49.2853 24.3176 49.3909C25.8643 50.4158 28.8834 50.8173 30.3239 49.3962C30.4355 49.2853 30.3611 49.0581 30.191 49.0739Z" fill="#37302C" stroke="black" stroke-width="0.3"/>
<path d="M24.1634 38.9464C30.9777 38.957 37.8823 39.2687 44.6806 38.846C44.8719 38.8355 44.8719 38.566 44.6806 38.5502C38.0311 38.1381 31.2913 38.4392 24.6259 38.4498C17.7957 38.4604 10.9336 38.3283 4.10876 38.6875C4.09282 38.6875 4.09282 38.7087 4.10876 38.7087C10.7795 39.0626 17.4874 38.9358 24.1634 38.9464Z" fill="#37302C" stroke="black" stroke-width="0.3"/>
<path d="M52.4409 5.95396C50.2297 5.61056 47.9388 5.83245 45.7064 5.89056C42.8839 5.96452 40.0615 6.05962 37.2391 6.05962C32.3224 6.05962 27.124 5.86943 22.4731 4.11019C22.4519 4.09962 22.4359 4.1366 22.4572 4.14717C24.3548 5.2883 26.4543 5.72679 28.6283 6.05962C31.2487 6.45585 33.9064 6.58264 36.5534 6.64075C39.3865 6.70415 42.2248 6.6566 45.0579 6.55622C47.5083 6.46641 50.0171 6.54037 52.4409 6.15471C52.5419 6.13886 52.5419 5.96981 52.4409 5.95396Z" fill="#37302C" stroke="black" stroke-width="0.3"/>
<path d="M54.3066 6.0332C53.1797 8.56905 52.7067 11.3479 52.494 14.0951C52.2655 17.0113 52.3558 20.086 53.2541 22.8913C53.302 23.0445 53.5412 22.9811 53.4986 22.8226C52.1167 17.5238 52.223 11.1524 54.381 6.0649C54.4022 6.02264 54.3278 5.99094 54.3066 6.0332Z" fill="#37302C" stroke="black" stroke-width="0.3"/>
<path d="M56.2095 7.97206C56.1616 12.2038 56.0075 16.4302 55.6779 20.6513C55.3431 24.9306 54.6733 29.157 54.2162 33.4204C54.2003 33.563 54.4342 33.5894 54.4661 33.4521C55.4441 29.4423 55.7683 25.2106 56.0288 21.1004C56.3105 16.7313 56.3742 12.3517 56.337 7.97206C56.337 7.89282 56.2148 7.89282 56.2095 7.97206Z" fill="#37302C" stroke="black" stroke-width="0.3"/>
<path d="M3.00313 26.7373C3.03502 26.9064 3.28484 26.8536 3.29547 26.7004C3.42836 23.2717 3.81637 19.9064 4.23628 16.4988C4.61899 13.3819 5.04421 10.0747 4.19376 6.99469C4.16718 6.88903 4.00772 6.93658 4.02899 7.04224C5.597 13.5826 1.84971 20.1917 3.00313 26.7373Z" fill="#37302C" stroke="black" stroke-width="0.3"/>
<path d="M7.98363 11.8181C7.98894 11.8023 7.96768 11.797 7.96237 11.8128C6.95777 14.9192 6.3784 18.0098 6.08606 21.2589C5.78309 24.5977 5.48543 28.1638 5.87345 31.5026C5.90002 31.7192 6.18705 31.7192 6.20831 31.5026C6.58038 28.2694 6.29867 24.9517 6.48471 21.7026C6.67075 18.4007 7.09066 15.0038 7.98363 11.8181Z" fill="#37302C" stroke="black" stroke-width="0.3"/>
</g>
<defs>
<clipPath id="clip0_1_198">
<rect width="59" height="63" fill="white"/>
</clipPath>
</defs>
</svg>
