<svg width="86" height="86" viewBox="0 0 86 86" fill="none" xmlns="http://www.w3.org/2000/svg">
<circle cx="43" cy="43" r="43" fill="#EDD2C0"/>
<g clip-path="url(#clip0_1_176)">
<path d="M21.0532 65.3406C21.0908 65.3406 21.0908 65.2909 21.0532 65.2909C21.0155 65.2909 21.0155 65.3406 21.0532 65.3406Z" fill="#5E4F47"/>
<path d="M76.3053 44.8236C76.3345 44.7615 76.3638 44.6994 76.3973 44.6415C76.5438 44.0373 76.7363 43.4497 77 42.8621C76.8744 42.7255 76.7489 42.589 76.6275 42.4524C76.6191 42.4441 76.6108 42.4317 76.6024 42.4235C72.7312 42.7628 70.6009 38.426 68.7888 35.7113C68.1945 34.8216 66.9766 32.6284 65.5829 31.0807C65.4323 30.7745 65.223 30.4807 65.0096 30.2159C64.566 29.3262 63.7792 28.6309 62.8584 28.2171C63.2602 25.7715 64.1307 23.3879 65.5829 21.3602C65.8048 21.0498 65.5076 20.6236 65.1561 20.6236C62.0758 20.636 59.1797 21.7037 57.3801 24.2569C57.0997 24.0293 56.8109 23.8059 56.5221 23.5907C47.319 14.1101 29.0258 18.0621 19.6177 25.2666C16.5709 27.5964 14.629 30.7083 13.679 34.1388C13.5701 34.2423 13.4655 34.3499 13.3483 34.4451C12.8168 33.5347 12.0133 32.7112 10.9837 32.4339C9.74912 32.1029 9.20924 33.4229 9.00417 34.354C8.97906 34.474 9.14646 34.5196 9.18832 34.4037C9.59427 33.2988 10.3518 32.4588 11.4441 33.3774C12.0384 33.874 12.4192 34.6396 12.6327 35.3637C12.708 35.6203 13.0177 35.8396 13.2939 35.7362C13.2981 35.7362 13.3023 35.732 13.3065 35.732C12.8712 38.0701 12.867 40.5158 13.2604 42.9407C13.6036 45.0429 14.2942 47.083 15.194 49.0238C15.1228 49.2018 15.2358 49.4211 15.4116 49.479C15.9264 50.5467 16.4997 51.5812 17.1191 52.5785C17.1987 52.7068 17.2824 52.8433 17.3702 52.984C17.7469 54.031 18.45 54.9042 19.2117 55.707C19.4377 56.0008 19.6679 56.2946 19.9064 56.5801C19.9064 56.5801 19.9064 56.5801 19.9023 56.5842C19.7055 56.8698 20.0487 57.1388 20.3124 57.0477C20.7435 57.5277 21.1955 57.9664 21.6684 58.3471C23.4847 60.59 24.6984 63.106 24.1711 66.4C24.1292 66.6648 24.4473 66.8634 24.5645 66.5945C24.5687 66.5821 24.5729 66.5738 24.577 66.5614C26.0962 66.6317 27.5652 66.5448 29.0886 66.4372C30.4613 66.3379 31.7922 66.7145 33.1231 66.731C33.19 66.7476 33.257 66.76 33.324 66.7848C33.3198 66.8179 33.3156 66.851 33.3114 66.8841C33.2989 67.0207 33.5123 67.0414 33.5458 66.9172C33.55 66.9007 33.5583 66.88 33.5625 66.8634C33.709 66.909 33.8513 66.8386 33.9475 66.7269C34.0103 66.7517 34.0647 66.7724 34.1275 66.7807C34.2238 66.8262 34.3075 66.8179 34.3786 66.7765C34.5167 66.731 34.5711 66.5986 34.5586 66.462C34.5669 66.3545 34.5377 66.2551 34.4581 66.1931C34.3242 65.7668 34.2614 65.3654 34.2698 64.9806C34.341 64.6868 34.4247 64.3971 34.5209 64.1074C34.6381 63.7971 34.7511 63.4908 34.8599 63.1805C34.8641 63.1681 34.8599 63.1598 34.8641 63.1474C35.1445 62.7211 35.5128 62.3404 35.9355 61.9928C35.9397 61.9928 35.9397 61.997 35.9397 61.997C36.0652 62.0342 36.1782 61.9266 36.174 61.8066C37.7184 60.6645 39.8904 60.0106 41.5017 59.8948C45.3311 59.6175 47.6622 63.1598 49.5413 65.8868C49.4409 65.9613 49.4325 66.1144 49.5539 66.1972C51.0731 67.2235 53.2452 66.8759 55.2917 66.5241C55.4508 66.5324 55.6056 66.5448 55.7605 66.5531C56.3799 66.4289 57.0034 66.3172 57.6228 66.1972C57.8907 66.1765 58.1543 66.1682 58.4013 66.1765C58.5812 66.1806 58.7277 66.0938 58.8281 65.9655C58.9663 65.9531 59.1002 65.953 59.2299 65.9696C60.2804 62.4232 61.2974 59.0423 63.6996 56.0753C65.4114 53.9648 67.642 52.6323 70.1029 51.8461C70.1531 51.8585 70.2033 51.8378 70.241 51.8005C70.7348 51.6474 71.2329 51.5191 71.7435 51.4074C71.8313 51.4695 71.9527 51.4405 72.0071 51.3495C73.0241 51.1426 74.0662 51.0143 75.1167 50.9522C75.1125 50.8363 75.1041 50.7205 75.1041 50.6046C75.1041 50.2818 75.1334 49.9632 75.1753 49.6487C75.2046 49.4294 75.2506 49.2183 75.3008 49.0031C75.3845 48.8417 75.4599 48.6721 75.5184 48.5024C75.7696 47.7865 75.9537 47.0541 76.142 46.3216C76.2676 45.8209 76.5898 45.2912 76.3053 44.8153C76.3094 44.8236 76.3094 44.8236 76.3053 44.8236ZM74.3341 50.2073C74.3382 50.3149 74.3675 50.406 74.4136 50.4805C74.2671 50.468 74.1206 50.4556 73.9741 50.4432C74.0997 50.3729 74.2169 50.2901 74.3341 50.2073ZM71.7895 50.4598C71.71 50.3439 71.6263 50.2322 71.5509 50.137C71.3082 49.8308 70.9734 49.6073 70.5925 49.508C70.5172 49.4873 70.4628 49.6032 70.5381 49.6404C70.8688 49.7935 71.099 50.0377 71.2747 50.348C71.304 50.3977 71.3208 50.4556 71.3459 50.5136C70.873 50.5715 70.4126 50.6543 69.9606 50.7618C69.7681 50.2197 69.6007 49.6652 69.4291 49.1231C69.3747 48.9452 69.1194 49.0197 69.1529 49.1976C69.2575 49.7646 69.3286 50.3439 69.5128 50.8819C68.8557 51.0639 68.2196 51.2957 67.6085 51.5729C67.5332 51.4157 67.4453 51.2626 67.3658 51.097C67.0812 50.4846 66.9013 49.8308 66.851 49.1604C66.8385 49.0073 66.6125 49.0073 66.6125 49.1604C66.5999 49.748 66.6878 50.3025 66.8385 50.8694C66.9138 51.155 67.0059 51.4943 67.144 51.7923C66.6334 52.0488 66.1396 52.3385 65.6666 52.6571C65.2984 51.9247 64.951 51.1757 64.6706 50.4101C64.6371 50.3232 64.5032 50.3605 64.5325 50.4473C64.792 51.246 65.11 52.0323 65.4574 52.802C64.0428 53.7868 62.7915 55.0242 61.7284 56.4477C61.628 56.1953 61.448 55.947 61.3518 55.7111C61.2011 55.3469 61.0798 54.9704 60.9416 54.6021C60.8579 54.3745 60.5022 54.4655 60.5734 54.7014C60.6989 55.1235 60.8077 55.5497 60.95 55.9635C61.0505 56.2573 61.1635 56.6712 61.4271 56.8698C61.0212 57.445 60.6445 58.045 60.2971 58.6699C60.1465 58.4547 59.9958 58.2395 59.8744 57.9995C59.5354 57.3374 59.3429 56.6008 59.1881 55.8766C59.1504 55.6945 58.8867 55.7773 58.9119 55.9511C59.05 56.9401 59.2969 58.3512 59.9832 59.2575C59.8075 59.601 59.6401 59.9527 59.481 60.3086C59.2718 60.1596 59.0541 60.0148 58.8658 59.8451C58.4222 59.4561 58.0999 58.9678 57.9325 58.405C57.8698 58.194 57.5726 58.285 57.6103 58.4919C57.7065 59.0465 57.9409 59.5554 58.2883 59.9982C58.5394 60.3169 58.8491 60.681 59.2174 60.9252C58.8742 61.7611 58.5812 62.6177 58.3427 63.495C57.8321 62.5391 57.3801 61.5625 56.9658 60.5486C56.9448 60.4948 56.857 60.5114 56.8737 60.5734C57.1876 61.7611 57.4219 63.0977 58.1836 64.0992C58.1041 64.4178 58.033 64.7406 57.9702 65.0633C57.3466 65.0675 56.7356 65.113 56.1204 65.1833C55.0783 65.1627 54.0194 65.2289 52.9941 65.3406C52.6927 65.3737 52.3286 65.4027 51.9729 65.4689C51.9436 64.8151 51.8766 64.1654 51.8181 63.5157C51.8181 63.4867 51.772 63.4867 51.772 63.5157C51.7134 64.1985 51.6423 64.8771 51.6172 65.5599C51.4581 65.6096 51.3117 65.6758 51.1777 65.7586C50.9978 65.771 50.8178 65.7834 50.6378 65.7958C50.6295 65.7503 50.6211 65.7048 50.596 65.6551C50.5081 65.4896 50.416 65.3282 50.324 65.1627C50.3407 64.844 50.2989 64.5088 50.303 64.1943C50.3072 63.5364 50.4035 62.8991 50.6086 62.2742C50.642 62.1749 50.4746 62.1046 50.4328 62.1997C50.1942 62.7584 50.0477 63.3212 49.964 63.9212C49.9431 64.0826 49.9138 64.2564 49.8887 64.4302C49.7213 64.1654 49.5455 63.9047 49.3656 63.6522C49.4032 63.6191 49.4325 63.5736 49.4283 63.5115C49.3907 62.5225 49.3405 61.5128 49.7339 60.5734C49.7673 60.4989 49.6376 60.4493 49.6041 60.5196C49.1689 61.3638 49.0977 62.3032 49.0601 63.2343C48.6457 62.7005 48.2021 62.1997 47.725 61.7445C47.7208 60.7431 48.0221 59.8037 48.4281 58.8892C48.4532 58.8354 48.3737 58.7858 48.3444 58.8395C47.8882 59.6589 47.5199 60.5114 47.3818 61.43C46.821 60.9335 46.2184 60.499 45.578 60.1389C45.8082 59.783 45.8961 59.3113 46.0761 58.9306C46.2811 58.4878 46.5113 58.0533 46.7038 57.6022C46.7164 57.5774 46.6745 57.5609 46.6578 57.5857C46.369 58.0492 46.0426 58.4919 45.7412 58.9471C45.5487 59.2368 45.2683 59.601 45.2307 59.9651C44.6196 59.6589 43.9793 59.423 43.3013 59.2658C43.6026 58.6244 43.7408 57.8174 43.7115 57.1801C43.7115 57.147 43.6654 57.1512 43.6612 57.1801C43.6068 57.6767 43.4436 58.1112 43.226 58.5582C43.1214 58.7733 42.9874 58.972 42.8744 59.183C42.4727 59.1127 42.0625 59.0671 41.6398 59.0547C41.6775 59.0382 41.711 59.0133 41.7361 58.9761C41.916 58.7154 41.8574 58.3885 41.8742 58.0905C41.8993 57.6519 41.9788 57.2132 42.0709 56.7829C42.0918 56.6836 41.9411 56.6049 41.8951 56.7084C41.7193 57.0932 41.5645 57.4864 41.4347 57.8878C41.3259 58.2312 41.1585 58.6451 41.3678 58.972C41.3887 59.0092 41.4222 59.034 41.4557 59.0506C41.0079 59.0465 40.5517 59.0671 40.0788 59.1334C40.0662 59.1334 40.0537 59.1375 40.0369 59.1375C40.0285 59.092 40.0118 59.0506 39.9741 59.0092C39.6142 58.6119 39.4468 58.1692 39.5598 57.6312C39.5975 57.4491 39.3506 57.3871 39.2836 57.5567C39.0576 58.1319 39.1371 58.7402 39.4677 59.2492C38.9739 59.3651 38.4717 59.5306 37.982 59.7458C37.9695 59.5886 37.9527 59.4272 37.9444 59.2782C37.9151 58.7195 37.8732 58.1567 37.8355 57.5981C37.8272 57.445 37.6054 57.445 37.597 57.5981C37.5593 58.1567 37.5258 58.7195 37.4882 59.2782C37.4714 59.5099 37.4379 59.7624 37.4379 60.0024C36.852 60.3045 36.2912 60.6728 35.789 61.0948C35.7095 60.9914 35.63 60.8921 35.563 60.7803C35.2868 60.3293 35.2282 59.8037 35.2742 59.2865C35.2868 59.1499 35.0733 59.1292 35.0399 59.2534C34.8808 59.8741 34.8976 60.8962 35.3286 61.5169C34.9436 61.8977 34.6088 62.3115 34.3493 62.7584C34.1568 62.5225 33.868 62.3363 33.709 62.0549C33.4495 61.6038 33.4495 61.0493 33.4997 60.5486C33.5039 60.4948 33.4202 60.4865 33.4035 60.5362C33.2612 61.0493 33.2068 61.5542 33.3198 62.0797C33.4035 62.4604 33.6755 63.0232 34.0605 63.2219C33.8304 63.7929 33.6253 64.3764 33.4788 64.9723C33.3114 64.6081 33.0729 64.2481 32.9138 63.9129C32.6041 63.2508 32.3195 62.7005 31.7713 62.1997C31.7294 62.1625 31.675 62.208 31.6959 62.2577C31.9889 62.9322 32.2275 63.6398 32.5037 64.3226C32.7046 64.8151 32.8636 65.4606 33.3156 65.7792C33.3114 65.8124 33.303 65.8413 33.2989 65.8744C31.131 64.5957 27.0212 65.9862 24.6691 66.3462C25.1127 65.2165 25.3136 64.1281 25.2843 63.0688C25.7824 61.9721 26.2762 60.8672 26.6571 59.7168C26.6738 59.6672 26.5943 59.6299 26.5692 59.6796C26.1716 60.4617 25.7028 61.2107 25.2592 61.968C25.2383 62.0052 25.2132 62.0466 25.1881 62.088C25.1378 61.7818 25.0709 61.4756 24.983 61.1735C25.2508 60.8052 25.4894 60.4079 25.728 60.0479C26.2846 59.212 26.7742 58.3388 27.1509 57.4077C27.2011 57.2836 26.9919 57.1967 26.9333 57.3167C26.5315 58.1112 26.0377 58.8437 25.5061 59.5596C25.2801 59.8617 25.0081 60.1555 24.7403 60.4493C24.6022 60.0934 24.4431 59.7375 24.259 59.3775C24.3301 59.2575 24.3259 59.092 24.2255 58.9637C24.1753 58.9016 24.1209 58.8395 24.0706 58.7733C24.4557 58.2685 24.7528 57.6684 25.029 57.147C25.5271 56.216 25.9121 55.2228 26.2511 54.2255C26.2762 54.151 26.1507 54.0972 26.1214 54.1717C25.7447 55.0283 25.3178 55.8559 24.8365 56.6587C24.4933 57.2298 24.0539 57.7264 23.6354 58.2395C23.514 58.0947 23.3885 57.9498 23.2629 57.805C23.0411 57.5071 22.8109 57.2215 22.5724 56.9401C22.8821 56.4022 23.2336 55.8932 23.5433 55.3552C24.1334 54.3331 24.7319 53.2861 24.9704 52.1192C24.9872 52.0281 24.8616 51.995 24.8323 52.0819C24.4306 53.2985 23.6103 54.3289 22.8486 55.3469C22.6435 55.6242 22.3464 55.9883 22.0827 56.3815C21.84 56.1084 21.5972 55.8394 21.3545 55.5745C22.3547 53.9607 23.2169 52.3012 23.694 50.4308C23.7191 50.3398 23.5894 50.3108 23.5559 50.3936C22.8988 52.0488 21.932 53.5965 20.9276 55.0945C20.4128 54.5028 19.9064 53.8696 19.3666 53.2944C20.2789 51.4446 21.1118 49.5866 22.3631 47.8941C22.3798 47.8693 22.3464 47.8486 22.3254 47.8651C20.8648 49.028 19.6721 50.8322 18.8099 52.6116C18.6383 52.3757 18.4709 52.1357 18.3119 51.8874C18.1738 51.6722 18.0441 51.4529 17.9143 51.2377C18.9564 49.7811 19.6804 48.1507 20.3961 46.5078C20.5049 46.2595 20.1408 46.0402 20.0236 46.2926C19.3163 47.8196 18.6007 49.3549 17.6088 50.7205C17.2405 50.0749 16.9015 49.4169 16.5918 48.7424C18.111 47.4017 18.9857 45.5022 19.806 43.669C19.8185 43.6401 19.7809 43.6194 19.7641 43.6442C18.7346 45.1505 17.7553 46.9299 16.3323 48.1465C16.0645 47.5217 15.8217 46.8885 15.5999 46.2471C16.9852 44.927 17.6967 43.0193 18.9648 41.5834C19.0066 41.5379 18.9439 41.4758 18.8978 41.5172C17.5711 42.7586 16.663 44.3187 15.3823 45.5809C15.1814 44.9395 15.0098 44.2898 14.855 43.6359C16.2068 42.4772 17.2238 40.9958 18.1026 39.4522C18.1152 39.4274 18.0859 39.4026 18.065 39.4233C16.981 40.6275 15.9682 41.9807 14.7252 43.0483C14.6792 42.8331 14.6457 42.6179 14.6081 42.3986C14.7964 42.1793 14.9638 41.9351 15.127 41.72C15.6125 41.0785 16.0143 40.3709 16.3951 39.6633C16.4119 39.6385 16.37 39.6136 16.3533 39.6385C15.9389 40.2426 15.5037 40.8261 15.0224 41.3765C14.8717 41.5462 14.6918 41.7034 14.5118 41.8607C14.4574 41.4634 14.4155 41.0703 14.3862 40.6771C14.8759 40.044 15.2986 39.3653 15.5916 38.6122C15.6209 38.5377 15.4953 38.4839 15.4618 38.5584C15.1772 39.1709 14.7964 39.7212 14.3695 40.2344C14.3318 39.4481 14.3402 38.6701 14.4072 37.9004C14.8634 37.4949 15.2609 37.0314 15.5874 36.5142C15.6376 36.4355 15.5162 36.3693 15.4618 36.4438C15.1689 36.8328 14.8299 37.1845 14.4532 37.4949C14.562 36.5224 14.7545 35.5707 15.0266 34.6437C15.5455 34.1182 15.8803 33.4602 15.8092 32.6822C15.805 32.6574 15.8008 32.6326 15.7925 32.6036C17.0354 29.8434 19.0401 27.4019 21.7228 25.5066C31.064 18.9063 48.0724 16.353 57.1164 24.7121C57.1708 24.7618 57.2294 24.77 57.2797 24.7494C57.4136 25.1094 58.0079 25.2956 58.3008 24.8694C59.6735 22.8748 61.9126 21.9354 64.2521 21.6664C63.9926 22.1133 63.7415 22.5892 63.5113 23.0817C63.3899 23.0858 63.2769 23.1562 63.2393 23.3093C62.938 24.4017 62.5153 25.4487 62.1218 26.5122C61.9461 26.9881 61.7494 27.5178 61.6908 28.0475C61.2765 28.3123 61.1551 29.0034 61.6866 29.2972C61.8749 29.4006 62.0633 29.5082 62.2432 29.62C62.1804 29.7027 62.147 29.8103 62.1804 29.9179C62.193 29.9634 62.2139 30.0048 62.2307 30.0462C62.4148 30.0048 62.6031 29.9965 62.7956 30.0296C63.3146 30.6959 64.0721 31.3332 64.3483 31.6932C64.4362 31.8091 64.5409 31.8753 64.6497 31.9125C64.8296 32.1277 65.0305 32.3181 65.2733 32.4629C66.5037 34.1678 67.4955 36.0258 68.3995 37.9294C69.563 39.713 71.3584 41.1158 72.7521 42.7338C73.8235 43.3711 74.9953 43.6359 76.1671 43.1187C75.7905 43.7725 75.5394 44.4925 75.3259 45.2457C75.2087 45.6512 75.0665 46.1106 74.9283 46.5906C74.6354 47.4886 74.4429 48.4196 74.3759 49.359C74.196 49.657 73.9658 49.9135 73.677 50.1122V49.9839C73.677 49.8639 73.4845 49.8639 73.4845 49.9839V50.2404C73.4217 50.2735 73.3966 50.3315 73.3966 50.3894C72.8358 50.3936 72.3085 50.4142 71.7895 50.4598Z" fill="#5E4F47"/>
<path d="M41.2213 37.9584C40.8405 35.3762 40.3048 32.7981 40.1959 30.1952C41.6063 30.609 42.9456 31.5649 44.0797 32.3098C44.1216 32.3346 44.1676 32.2849 44.1467 32.2436C43.385 30.998 41.8365 29.7896 40.1792 29.2393C40.1792 28.5606 40.2127 27.8819 40.288 27.2033C40.2922 27.1743 40.2462 27.1702 40.242 27.195C40.1206 27.8571 40.0495 28.5192 39.9992 29.1896C39.4719 29.0324 38.9404 28.9413 38.4215 28.9372C38.367 28.2213 38.3252 27.5054 38.3252 26.7812C38.3252 26.5743 37.9904 26.5163 37.9485 26.7315C37.8062 27.4847 37.7142 28.242 37.6598 29.0034C37.2538 29.0737 36.8604 29.202 36.4921 29.4131C34.4832 30.5635 32.1228 34.0726 34.1442 36.2245C35.2659 37.4163 36.7725 37.8756 38.2959 38.3101C38.3085 38.4094 38.321 38.5046 38.3336 38.6039C38.7353 41.8234 38.4215 45.5395 39.0743 48.8542C37.6514 48.1176 36.2494 46.4044 34.8097 45.8581C34.5586 45.7629 34.2782 46.0526 34.3661 46.2968C35.065 48.2127 37.2747 50.1494 39.4761 50.4349C39.5933 50.795 39.7188 51.1508 39.8695 51.4984C40.0578 51.9329 40.7065 51.6805 40.7191 51.2708C40.7275 50.9853 40.7233 50.6956 40.7107 50.4101C40.8488 50.3853 40.9869 50.348 41.125 50.3067C41.1543 50.795 41.1962 51.2833 41.2673 51.7716C41.305 52.0447 41.7821 52.0447 41.824 51.7716C41.9119 51.1508 41.9704 50.5218 42.0123 49.8846C42.1504 49.7935 42.2843 49.6983 42.4141 49.5825C45.239 47.1161 45.984 43.1518 43.8621 39.9737C43.1967 38.9846 42.2634 38.3887 41.2213 37.9584ZM39.9365 30.129C39.8486 32.6326 40.1374 35.1692 40.3968 37.6521C40.0997 37.5528 39.7984 37.4618 39.4928 37.3708C39.1999 34.9085 38.7563 32.4712 38.5052 30.009C38.9864 29.9634 39.4677 30.0131 39.9365 30.129ZM36.0652 36.2079C33.2486 34.7885 35.1863 31.1594 37.4547 30.2531C37.5049 30.2324 37.5551 30.22 37.6095 30.2035C37.5761 32.4587 37.8439 34.7347 38.1285 36.9776C37.4045 36.7624 36.7014 36.5266 36.0652 36.2079ZM40.6145 49.1645C40.4722 47.7782 40.2169 46.3919 40.1081 45.0139C39.9407 42.9118 39.8318 40.8054 39.6351 38.7032C39.9407 38.7984 40.242 38.906 40.5349 39.026C40.74 41.0413 40.9493 43.04 41.0372 45.0677C41.0916 46.3837 41.0539 47.7079 41.0748 49.028C40.92 49.0942 40.7693 49.1397 40.6145 49.1645ZM42.7949 47.2692C42.5522 47.6748 42.3136 47.9976 42.0751 48.2624C42.1169 45.3119 41.7821 42.2786 41.4222 39.4357C41.4975 39.4771 41.577 39.5185 41.6524 39.5598C44.3392 41.1696 44.2011 44.9312 42.7949 47.2692Z" fill="#5E4F47"/>
<path d="M27.3685 61.3514C26.565 62.7584 25.5145 63.975 24.9914 65.531C24.8533 65.9365 25.5187 66.1186 25.6401 65.7048C26.0837 64.2026 27.0337 62.9074 27.5443 61.4218C27.582 61.3183 27.4229 61.2562 27.3685 61.3514Z" fill="#5E4F47"/>
<path d="M62.6743 53.4475C62.4441 53.0668 62.4943 52.5537 62.5571 52.1357C62.5739 52.0198 62.3981 51.9619 62.373 52.0861C62.26 52.5785 62.1972 53.0875 62.3981 53.5634C62.5446 53.911 62.9212 54.3331 63.3188 54.3621C63.4569 54.3703 63.4904 54.2048 63.4192 54.1179C63.2016 53.8531 62.8668 53.7662 62.6743 53.4475Z" fill="#5E4F47"/>
</g>
<defs>
<clipPath id="clip0_1_176">
<rect width="68" height="49" fill="white" transform="translate(9 18)"/>
</clipPath>
</defs>
</svg>
