<svg width="86" height="86" viewBox="0 0 86 86" fill="none" xmlns="http://www.w3.org/2000/svg">
<circle cx="43" cy="43" r="43" fill="#EDD2C0"/>
<g clip-path="url(#clip0_1_187)">
<path d="M78.6646 26.0005C77.5672 23.8262 74.7527 22.3251 72.3645 22.0775C70.4184 21.8725 68.4842 22.1162 66.5578 22.4257C65.2591 22.2593 63.9722 22.3019 62.6024 22.3213C60.5261 22.3522 58.4497 22.4025 56.3694 22.4605C52.2246 22.5805 48.0798 22.743 43.9349 22.9054C40.1612 23.0525 36.3914 23.2343 32.6215 23.3736C32.5307 23.273 32.3886 23.2072 32.211 23.2343C31.9386 23.2769 31.6662 23.3388 31.3899 23.4161C29.5346 23.4742 27.6754 23.4935 25.824 23.598C23.9056 23.7063 21.9318 23.6521 20.041 24.0235C19.8792 24.0584 19.8318 24.2402 19.891 24.3679C18.2883 25.3273 18.1383 27.7956 18.0396 29.4399C17.8738 32.1713 18.3002 34.8601 18.4857 37.576C18.5923 39.112 18.5015 40.6556 18.4896 42.1916C18.466 44.4161 18.5607 46.6446 18.6239 48.8692C18.7502 53.268 18.9397 57.6669 19.1252 62.0657C19.1489 62.6151 19.5555 62.9904 20.1042 63.0252C25.4806 63.3579 30.8412 63.9653 36.2295 64.0001C38.8348 64.0156 41.4796 63.7138 44.0415 63.2689C45.3008 63.0484 46.5442 62.7621 47.7758 62.4139C48.964 62.0812 50.1916 61.7601 51.1785 61.0134C51.2022 60.9979 51.218 60.9747 51.2338 60.9515C52.8799 60.0036 54.1825 58.5799 54.5417 56.7577C54.9365 54.7536 53.8944 53.4769 52.3549 52.7109C54.0286 52.2041 55.6194 50.9003 56.3339 49.434C57.0484 47.9677 56.7839 46.308 55.9865 44.9307C55.4536 44.0099 54.5891 43.1665 53.5944 42.5823C53.772 42.5165 53.9299 42.4508 54.072 42.3927C55.5602 41.7853 57.0918 40.733 57.676 39.1932C58.1931 37.8353 57.7944 36.3071 56.6142 35.4288C56.2392 35.1503 55.8207 34.9839 55.3825 34.8601C57.1747 34.8795 58.9708 34.864 60.7708 34.7789C63.3169 34.6589 65.8591 34.4307 68.3815 34.0399C69.625 33.8465 70.8566 33.5989 72.0803 33.3087C73.1737 33.0495 74.2869 32.9296 75.0093 32.0552C75.108 31.9353 75.1317 31.7728 75.0725 31.649C77.5515 30.4922 79.8962 28.4456 78.6646 26.0005ZM50.9101 52.1035C50.8746 52.1151 50.8469 52.1344 50.8272 52.1538C50.5746 52.0841 50.314 52.0261 50.0535 51.9758C50.3653 51.9758 50.6732 51.972 50.9851 51.9565C51.1232 51.9487 51.2693 51.9371 51.4154 51.9255C51.2535 51.9874 51.0838 52.0455 50.9101 52.1035ZM56.7405 38.8141C56.4681 39.4099 56.0062 39.8973 55.4576 40.2997C56.101 38.7173 55.501 36.5818 54.4154 35.2161C56.0023 35.9589 57.7076 36.6901 56.7405 38.8141ZM76.2409 29.614C75.8698 29.8925 75.483 30.1363 75.0843 30.3684C75.5422 29.8925 75.9251 29.3548 76.158 28.7512C76.7699 27.1805 76.312 25.6175 75.4475 24.2286C75.408 24.1667 75.3172 24.2208 75.3488 24.2827C76.1501 25.7529 76.4975 27.3778 75.6448 28.906C74.9264 30.1904 73.5251 31.0068 72.2106 31.5987C72.2027 31.5987 72.1908 31.5948 72.1829 31.5948C71.2118 31.6258 70.221 32.0204 69.2697 32.2177C68.0973 32.4576 66.9052 32.6123 65.713 32.7323C63.4867 32.9605 61.2406 32.9992 59.0024 32.9876C54.6049 32.9644 50.2193 32.7632 45.8218 33.0418C45.7744 33.0456 45.7744 33.1153 45.8218 33.1153C50.2667 33.0882 54.6996 33.506 59.1445 33.5602C54.7115 33.831 50.2588 33.9587 45.8218 34.1367C45.5534 34.1483 45.5534 34.5313 45.8218 34.5429C48.435 34.6512 51.0364 34.775 53.6417 34.8408C53.847 34.9491 54.0641 35.0574 54.2852 35.1619C54.9523 36.1523 55.2878 37.2433 55.3312 38.4388C55.3707 39.5337 54.9168 40.3152 54.2496 41.0154C54.1509 41.0619 54.0523 41.1083 53.9536 41.1508C53.918 41.1238 53.8707 41.1083 53.8115 41.116C51.1232 41.5029 48.5653 42.4353 45.8179 42.5243C45.806 42.5243 45.806 42.5436 45.8179 42.5436C46.8205 42.5591 47.8311 42.532 48.8337 42.4508C48.664 42.5707 48.4982 42.71 48.3403 42.8647C48.3008 42.8725 48.2613 42.8763 48.2219 42.8802C46.9508 43.0466 45.6994 43.2593 44.5192 43.7739C44.4994 43.7816 44.5152 43.8165 44.5349 43.8087C45.7073 43.4025 46.9508 43.3445 48.1903 43.2903C48.2653 43.3909 48.4271 43.4373 48.5614 43.329C48.589 43.3058 48.6127 43.2903 48.6403 43.271C49.1061 43.2516 49.568 43.2245 50.0298 43.1742C50.7009 43.3445 51.5575 43.2129 52.3509 42.9963C53.4522 43.4837 54.4391 44.362 55.0312 45.2982C55.7141 46.3776 55.9352 47.724 55.3944 48.904C55.2641 49.1903 55.1023 49.4379 54.9207 49.6661C55.0312 49.4224 55.122 49.1787 55.1931 48.9388C55.7418 47.0392 54.8536 45.2441 52.9075 44.6831C52.8364 44.6637 52.8088 44.7643 52.8759 44.7914C54.7589 45.4955 55.2839 47.221 54.6207 48.9891C54.2812 49.8944 53.7167 50.5714 53.0101 51.086C50.5272 51.8907 47.7916 51.8017 45.1823 51.3375C45.1586 51.3336 45.1468 51.3645 45.1705 51.3723C45.7981 51.5232 46.4297 51.647 47.0692 51.7437C46.86 51.7514 46.6547 51.763 46.4613 51.7824C46.1929 51.8056 46.1968 52.1615 46.4613 52.1886C48.8653 52.4401 54.1746 53.1636 53.3022 56.7151C52.643 59.4001 49.4219 60.6149 46.8087 61.4545C46.8797 61.4003 46.9468 61.3461 47.01 61.292C47.089 61.2301 47.1679 61.1643 47.2468 61.0985C48.1666 60.6884 49.0785 60.2396 49.9785 59.8218C51.2417 59.2376 52.3509 58.3052 52.9549 57.0595C52.9943 56.9743 52.8759 56.9047 52.8246 56.986C51.8733 58.518 50.3022 59.0867 48.7271 59.6709C49.0982 59.2531 49.4495 58.8159 49.789 58.3478C49.8759 58.224 49.6864 58.0924 49.5837 58.1892C48.8061 58.9397 47.9771 59.6671 47.1126 60.3325C46.5876 60.584 46.0902 60.878 45.6481 61.261C45.6323 61.2726 45.6244 61.2881 45.6165 61.3036C45.431 61.4003 45.2415 61.4931 45.056 61.5899C44.5231 61.5357 43.9902 61.4854 43.4573 61.4467C44.6376 60.6149 45.6284 59.3305 46.6547 58.4638C46.8797 58.2743 46.5797 57.8913 46.335 58.0576C44.835 59.0829 43.3941 60.2396 41.9454 61.3423C41.2072 61.2997 40.473 61.2649 39.7348 61.2417C40.8441 60.3828 41.8586 59.5046 42.7468 58.4136C42.8691 58.2665 42.7033 57.988 42.5178 58.1234C41.4638 58.9126 40.3862 59.6864 39.3046 60.4408C38.9375 60.6962 38.4993 60.936 38.073 61.1952C37.6151 61.1836 37.1572 61.1759 36.7032 61.1682C37.9585 60.2783 38.8585 59.0867 39.6559 57.7984C39.8296 57.516 39.4072 57.1833 39.1822 57.4425C38.3138 58.4406 37.3624 59.4272 36.2848 60.2126C35.7361 60.611 35.1282 60.9128 34.4926 61.1449C34.3031 61.1411 34.1176 61.1411 33.9281 61.1372C33.1979 61.1295 32.4676 61.1295 31.7373 61.1256C31.9978 60.9322 32.2465 60.7348 32.4873 60.5491C33.5255 59.7406 34.4137 58.8894 34.994 57.7094C35.0453 57.605 34.9032 57.4734 34.8163 57.5779C34.0505 58.5025 33.0163 59.2879 32.0334 59.9766C31.4057 60.4137 30.6833 60.7348 30.0202 61.1217C29.3728 61.1217 28.7214 61.1256 28.0741 61.1295C28.7017 60.7967 29.282 60.3286 29.807 59.9108C30.9281 59.021 31.8399 57.9067 32.9808 57.0362C32.9965 57.0246 32.9768 56.9976 32.9571 57.0053C31.9741 57.5934 31.0939 58.3284 30.186 59.0248C29.5623 59.5046 28.9622 59.992 28.2912 60.406C27.8175 60.7 27.2925 60.8935 26.7911 61.1333C26.2701 61.1372 25.749 61.1527 25.224 61.1604C26.9175 60.495 28.4057 59.2995 29.282 57.752C29.3767 57.5895 29.1754 57.3458 28.9978 57.4734C27.9399 58.2549 27.028 59.1951 25.9109 59.903C24.8214 60.5956 23.6174 61.0211 22.3463 61.1295C22.3739 61.0405 22.3976 60.9476 22.4213 60.8587C23.7161 60.4021 25.2161 59.5549 25.4609 58.3362C25.5003 58.1389 25.3148 58.0035 25.1293 58.0847C24.4543 58.3942 23.9056 59.021 23.3095 59.4543C23.1003 59.6051 22.8792 59.7406 22.6542 59.8682C22.9226 58.5412 23.0647 57.1523 23.27 55.8679C23.574 53.9953 23.8424 52.1112 24.0398 50.2232C24.4779 45.9907 24.6595 41.735 24.62 37.4793C24.62 37.4561 24.5845 37.4561 24.5806 37.4793C24.5332 41.6228 24.2529 45.747 23.7634 49.8557C23.5108 51.9642 23.2305 54.065 22.8911 56.158C22.6779 57.4734 22.3226 58.8198 22.1055 60.1584C21.841 60.2783 21.5726 60.3828 21.3002 60.4679C20.8581 60.5994 21.0397 61.2455 21.4897 61.1411C21.6437 61.1063 21.8134 61.0598 21.9871 61.0095C21.9831 61.0598 21.9792 61.1101 21.9713 61.1604C21.7818 61.1682 21.5884 61.1682 21.395 61.1604C21.3397 61.1604 21.2963 61.1682 21.2568 61.1875C21.1897 61.1836 21.1187 61.1759 21.0515 61.172C20.8976 57.3341 20.7436 53.4963 20.6331 49.6584C20.5186 45.9018 20.6134 42.1142 20.3568 38.3653C20.191 35.9163 19.7765 33.448 19.4134 31.0184C19.1331 29.1459 18.5686 26.0818 19.9463 24.4414C19.9739 24.4646 20.0055 24.4801 20.041 24.4878C21.7305 24.8166 23.4871 24.7664 25.2082 24.8012C23.1674 25.3312 21.5647 27.5713 20.5068 29.1575C20.3055 29.4592 20.7871 29.7262 20.9923 29.436C22.4016 27.4591 23.9806 26.0044 26.2701 25.0797C26.3925 25.0294 26.4359 24.9095 26.4003 24.8128C27.0872 24.8166 27.7741 24.8128 28.4609 24.8012C26.9846 25.8032 25.7174 27.1573 25.0701 28.5655C24.9595 28.8054 25.2674 28.9756 25.4293 28.7706C26.8661 26.929 28.528 25.6678 30.5333 24.7547C30.8768 24.747 31.2241 24.7354 31.5676 24.7277C31.8636 24.7199 32.1597 24.7122 32.4557 24.7044C32.3965 24.747 32.3373 24.7857 32.2781 24.8283C31.157 25.6446 29.5583 27.1844 29.7438 28.6623C29.7438 28.67 29.7557 28.6777 29.7596 28.67C30.2294 28.2406 30.4583 27.7724 30.8254 27.2579C31.3149 26.5654 31.986 25.9928 32.6807 25.5092C33.186 25.1571 33.7347 24.8824 34.3031 24.658C35.2584 24.6309 36.2177 24.6039 37.1729 24.5768C35.365 25.4008 33.8373 26.8981 33.5018 28.6352C33.4781 28.7512 33.6479 28.8402 33.7071 28.7203C34.4295 27.2463 35.3887 26.2056 36.9124 25.5014C38.3335 24.8437 39.9125 24.8785 41.377 24.4491C41.3888 24.4452 41.3928 24.4414 41.4046 24.4375C42.2494 24.4065 43.0902 24.3756 43.9349 24.3446C44.0139 24.3408 44.0889 24.3408 44.1678 24.3369C43.8362 24.4568 43.5047 24.5768 43.177 24.6967C41.3612 25.366 39.6204 26.1746 37.994 27.2192C37.7453 27.3778 37.9585 27.7105 38.223 27.6022C40.0388 26.8284 41.8467 26.0315 43.7297 25.4124C44.606 25.1262 45.4942 24.8863 46.3824 24.6464C46.9034 24.5033 47.4758 24.4065 47.9771 24.1938C48.4785 24.1744 48.9798 24.1551 49.4772 24.1357C49.2916 24.2402 49.1219 24.3369 48.9837 24.422C47.5587 25.2693 46.4258 26.5073 45.66 27.9504C45.5494 28.1632 45.8495 28.3334 45.9837 28.1361C46.8561 26.8826 48.0482 25.8496 49.3706 25.0681C50.0061 24.6928 50.6969 24.4375 51.4114 24.2479C51.8654 24.128 52.2956 24.1628 52.6825 24.0235C53.5272 23.9887 54.3681 23.9616 55.2128 23.9346C54.9207 24.1086 54.6325 24.2866 54.3483 24.4839C53.0851 25.3622 51.8535 26.4802 51.5022 28.0084C51.4706 28.1361 51.6325 28.1903 51.7075 28.0935C52.6312 26.8865 53.7523 25.8303 55.0391 25.0062C55.7457 24.5536 56.5115 24.1938 57.2931 23.8959C57.3129 23.8881 57.3326 23.8843 57.3523 23.8765C58.4774 23.8456 59.6024 23.8185 60.7274 23.7991C59.5511 24.2789 58.5524 24.9946 57.7944 26.0121C57.605 26.2675 58.0392 26.5924 58.2366 26.3487C59.1445 25.2229 60.3484 24.6116 61.7301 24.1976C62.4011 23.9965 63.1275 23.8959 63.8301 23.7566C65.263 23.7372 66.6565 23.6715 68.0776 23.273C68.2039 23.2382 68.271 23.1337 68.2749 23.0254C71.6895 22.8822 75.0725 22.9519 77.3659 25.9734C78.4396 27.3778 77.4449 28.7087 76.2409 29.614Z" fill="#5E4F47"/>
<path d="M69.609 23.6172C69.5972 23.621 69.6011 23.6404 69.613 23.6365C71.863 23.1839 74.6618 24.1975 74.7604 26.7587C74.7999 27.7259 74.2749 28.5848 73.5407 29.1922C72.3959 30.14 70.9393 30.0975 69.5695 30.4147C69.4274 30.4495 69.4235 30.6701 69.5695 30.701C72.1038 31.2156 75.3052 29.3701 75.0723 26.6194C74.8433 23.8957 71.8749 23.2574 69.609 23.6172Z" fill="#5E4F47"/>
<path d="M46.4651 35.7459C48.3559 35.7576 50.377 35.9665 52.2521 35.7266C52.4218 35.7034 52.4218 35.4906 52.2521 35.4674C50.377 35.2275 48.3559 35.4364 46.4651 35.448C46.2717 35.4519 46.2717 35.7459 46.4651 35.7459Z" fill="#5E4F47"/>
<path d="M22.0896 30.8712C22.0896 30.7977 21.9751 30.7977 21.9751 30.8712C21.9435 35.2701 22.2751 39.6651 22.3659 44.0639C22.4133 46.3001 22.4133 48.5324 22.2514 50.7647C22.0975 52.8926 21.5527 54.9237 21.2764 57.0245C21.2645 57.1328 21.4422 57.1793 21.4856 57.0825C22.2396 55.3648 22.3896 53.3027 22.5672 51.4573C22.7922 49.1244 22.8001 46.7721 22.7488 44.4276C22.658 39.9011 22.1488 35.3978 22.0896 30.8712Z" fill="#5E4F47"/>
<path d="M27.6199 45.6269C26.3883 49.8826 25.0502 54.8077 25.8002 59.2529C25.816 59.3613 25.9818 59.3303 25.9857 59.2297C26.0725 56.9742 26.1081 54.7496 26.4515 52.5096C26.8028 50.2192 27.3752 47.9637 28.0186 45.7353C28.0936 45.4838 27.6949 45.3755 27.6199 45.6269Z" fill="#5E4F47"/>
<path d="M30.9595 46.9423C30.9121 50.0451 30.4582 53.0551 29.641 56.0496C29.6016 56.1888 29.8068 56.2391 29.8582 56.1076C30.9674 53.2369 31.1332 49.9832 31.1095 46.9423C31.1095 46.8456 30.9634 46.8456 30.9595 46.9423Z" fill="#5E4F47"/>
</g>
<defs>
<clipPath id="clip0_1_187">
<rect width="61" height="42" fill="white" transform="translate(18 22)"/>
</clipPath>
</defs>
</svg>
