<svg width="86" height="86" viewBox="0 0 86 86" fill="none" xmlns="http://www.w3.org/2000/svg">
<circle cx="43" cy="43" r="43" fill="#EDD2C0"/>
<g clip-path="url(#clip0_202_2)">
<path d="M29.6677 61.2797C23.9301 61.0749 18.2215 60.3796 12.4742 60.5653C12.1601 60.5748 11.9474 60.8034 11.928 61.1035C11.7782 63.0562 11.3528 65.5375 12.3969 67.314C12.2664 67.3283 12.1359 67.3426 12.0102 67.3569C11.8024 67.3854 11.8265 67.7045 12.0102 67.7522C15.1376 68.538 18.3665 68.6047 21.5809 68.6523C23.6836 68.6809 25.7669 68.9857 27.8695 68.9905C32.0313 69.0048 30.6682 64.3421 30.2864 61.7417C30.2477 61.4654 29.9239 61.2892 29.6677 61.2797ZM24.6213 67.3712C20.967 66.9139 16.8729 66.8377 13.1413 67.233C13.0495 65.328 12.8706 63.561 12.9866 61.6464C13.7552 61.6369 14.5189 61.6464 15.2874 61.6655C15.2294 63.261 14.9974 64.9803 15.2004 66.552C15.2246 66.7282 15.4518 66.7282 15.476 66.552C15.679 64.9803 15.447 63.261 15.389 61.6702C17.6656 61.7274 19.9326 61.875 22.2045 62.0465C21.8226 63.1895 21.6196 64.3373 21.7694 65.5471C21.7888 65.709 22.0208 65.6804 21.9966 65.5185C21.8033 64.3373 21.9676 63.1943 22.3011 62.056C23.2147 62.1227 24.1283 62.1941 25.0418 62.2608C24.6551 63.723 24.4666 65.2518 24.6116 66.7615C24.6261 66.9378 24.8727 66.9378 24.8872 66.7615C25.0273 65.2565 24.9113 63.7658 25.1288 62.2703C26.4533 62.3656 27.7777 62.4608 29.107 62.5275C29.2906 63.7087 29.5275 64.8803 29.5372 66.0805C29.5565 68.4856 26.0037 67.5474 24.6213 67.3712Z" fill="#5E4F47"/>
<path d="M52.7631 60.3034C52.7679 59.9747 52.4924 59.7509 52.1782 59.7318C49.2393 59.5461 46.3149 59.5413 43.376 59.7271C40.5193 59.9033 37.6819 59.4032 34.8301 59.7175C34.6899 59.5651 34.395 59.5223 34.2984 59.7461C33.9262 60.5605 33.815 61.4321 33.8247 62.3227C33.8102 62.2418 33.699 62.2418 33.6893 62.3275C33.525 63.9087 33.2978 65.3184 33.8682 66.8473C33.9165 66.9711 34.0422 67.0521 34.1727 67.0616C34.2694 67.1807 34.4144 67.2664 34.5787 67.2711C40.5918 67.5379 46.7935 68.3904 52.7437 67.114C53.0386 67.0521 53.2464 66.6949 53.1449 66.4139C52.4344 64.4135 52.7196 62.3656 52.7631 60.3034ZM35.0959 66.271C35.1056 65.3232 35.0863 64.3897 34.8687 63.4896C35.2264 62.6513 35.2554 61.7798 35.3279 60.8415C38.0106 60.6225 40.6885 61.0035 43.3809 60.8796C46.1264 60.7558 48.8429 60.7082 51.5836 60.8463C51.5498 61.7893 51.5015 62.7228 51.5305 63.6515C51.429 63.6658 51.3275 63.7325 51.2791 63.8515C51.1679 64.1373 51.0809 64.4326 51.0181 64.7279C51.0084 64.6517 50.8876 64.6517 50.8828 64.7326C50.8683 65.2518 50.8537 65.7709 50.8392 66.2853C45.6672 67.0949 40.3018 66.4901 35.0959 66.271Z" fill="#5E4F47"/>
<path d="M33.699 48.53C33.699 48.5348 33.7038 48.5348 33.7038 48.5395C33.7038 48.5634 33.7038 48.5824 33.7087 48.6062C33.7232 49.0396 34.2259 49.1492 34.4821 48.9396C36.6766 49.3111 38.9822 48.8539 41.1767 48.6967C44.4491 48.4633 47.8665 48.7205 51.1583 48.6967C51.3661 48.6967 51.603 48.5491 51.6417 48.3348C52.0332 46.282 53.3334 41.9909 50.3897 41.4527C48.5046 41.105 46.5131 41.7527 44.6038 41.6432C40.9882 41.4289 37.3629 41.6003 33.757 41.2288C33.6072 41.2146 33.496 41.2574 33.4138 41.3289C33.3945 41.2669 33.2978 41.2622 33.2785 41.3289C32.8434 43.0958 33.2543 44.9437 33.5202 46.7678C33.5057 47.3489 33.5347 47.9395 33.699 48.53ZM45.1017 42.6957C44.5265 43.9483 44.6811 45.2533 44.7005 46.5916C44.7005 46.7393 44.9325 46.7393 44.9325 46.5916C44.9277 45.3105 44.7778 44.0245 45.3482 42.8291C45.3724 42.7767 45.3627 42.7243 45.3337 42.6862C45.6092 42.6719 45.8847 42.6672 46.1602 42.6481C47.6249 42.5624 49.1136 42.2433 50.5782 42.5052C51.7577 42.7196 50.8924 46.7964 50.8006 47.4156C50.6942 48.0966 46.5759 47.7966 45.6962 47.8061C43.7821 47.8204 41.9259 47.6775 40.0166 47.8299C40.0215 47.8204 40.0263 47.8156 40.0311 47.8061C40.1375 46.4583 40.2051 45.1152 40.3502 43.7721C40.355 43.7483 40.3115 43.7435 40.3067 43.7673C40.0601 45.0961 39.7218 46.4487 39.804 47.8061C39.804 47.8251 39.8185 47.8299 39.8233 47.8442C38.813 47.9347 37.8076 48.0395 36.7974 48.0871C37.2373 46.5678 37.3436 44.9342 37.1696 43.372C37.1551 43.2292 36.9231 43.2244 36.9376 43.372C37.1068 45.0009 36.8361 46.5106 36.546 48.1014C36.0965 48.1157 35.6421 48.1252 35.1926 48.1014C34.9219 48.0919 34.7382 47.9442 34.6174 47.7299C34.5787 47.1012 34.5159 46.4678 34.4241 45.8343C34.4627 45.3724 34.5256 44.9628 34.5401 44.7675C34.5981 43.9436 34.3854 43.2387 34.0664 42.4862C33.9987 42.3243 33.8343 42.2719 33.699 42.2957C33.6942 42.2814 33.6942 42.2671 33.6893 42.2528C33.7183 42.2623 33.7425 42.2766 33.7812 42.2814C37.4354 42.6386 41.3701 42.8434 45.1017 42.6957Z" fill="#5E4F47"/>
<path d="M33.8246 58.7079C33.844 58.6507 33.8681 58.5888 33.8875 58.5221C33.931 58.5507 33.9793 58.5745 34.0277 58.5793C40.0214 59.6175 46.1457 58.8698 52.1782 58.6126C52.5165 58.5983 52.8017 58.284 52.6954 57.9411C51.9606 55.5454 52.2748 53.0784 52.3087 50.6208C52.3135 50.316 52.0573 50.1065 51.7673 50.0874C46.0394 49.7112 40.3066 50.0588 34.5739 50.0779C34.3515 50.0779 34.2113 50.1874 34.1243 50.3351C33.989 50.3541 33.873 50.4637 33.8633 50.6208C33.8391 51.2067 33.9938 51.7496 33.989 52.3354C33.9842 53.2022 33.7618 54.0785 33.641 54.9358C33.554 55.555 33.641 56.1408 33.7183 56.7218C33.67 57.1743 33.6361 57.6267 33.6361 58.0792C33.6361 58.184 33.6748 58.2935 33.7376 58.384C33.7183 58.4793 33.7086 58.5697 33.6845 58.665C33.67 58.7555 33.7956 58.7888 33.8246 58.7079ZM51.2163 51.1304C51.1631 53.3022 50.9939 55.4692 51.4966 57.5886C47.533 57.7791 43.5839 58.0982 39.6106 58.0459C39.3012 58.0411 38.9919 58.022 38.6825 58.0125C38.7453 58.0077 38.8082 57.9696 38.8082 57.8839C38.8517 56.2646 38.7743 54.6644 38.6922 53.045C38.6922 53.0165 38.6487 53.0165 38.6438 53.045C38.5617 54.6644 38.4843 56.2646 38.5278 57.8839C38.5327 57.9649 38.5907 58.003 38.6535 58.0125C37.9043 57.9792 37.1551 57.9363 36.4107 57.8744C34.5255 57.7125 34.5835 57.4791 34.6995 55.8264C34.7527 55.0835 34.8107 54.4072 34.801 53.7452C35.0089 52.8212 35.1539 51.9163 34.8687 51.1686C40.3211 51.1305 45.7687 50.8209 51.2163 51.1304Z" fill="#5E4F47"/>
<path d="M14.0646 63.3277C14.0501 64.4707 14.0356 65.6137 14.0211 66.7568C14.0211 66.8758 14.2047 66.8758 14.2047 66.7568C14.1902 65.6137 14.1757 64.4707 14.1612 63.3277C14.1564 63.2705 14.0646 63.2705 14.0646 63.3277Z" fill="#5E4F47"/>
<path d="M16.9358 62.2989C16.3316 63.5086 16.1479 65.1089 16.6603 66.3853C16.7134 66.5186 16.9164 66.471 16.8826 66.3234C16.5732 64.9565 16.4331 63.6706 17.0179 62.3418C17.0373 62.2894 16.9648 62.2418 16.9358 62.2989Z" fill="#5E4F47"/>
<path d="M18.1587 62.318C18.1248 63.6515 17.9943 65.0232 18.091 66.352C18.1007 66.4996 18.3085 66.4996 18.323 66.352C18.4197 65.0232 18.2843 63.6515 18.2553 62.318C18.2505 62.2608 18.1587 62.2608 18.1587 62.318Z" fill="#5E4F47"/>
<path d="M19.3622 62.318C19.3526 63.5277 19.3477 64.7374 19.3381 65.9471C19.3381 66.0662 19.5218 66.0662 19.5218 65.9471C19.5121 64.7374 19.5073 63.5277 19.4976 62.318C19.5024 62.2322 19.3622 62.2322 19.3622 62.318Z" fill="#5E4F47"/>
<path d="M20.2033 62.318C20.1792 63.5848 20.0632 64.885 20.1598 66.1519C20.1695 66.2662 20.3338 66.2662 20.3435 66.1519C20.4402 64.8898 20.3242 63.5848 20.2952 62.318C20.2952 62.2608 20.2082 62.2608 20.2033 62.318Z" fill="#5E4F47"/>
<path d="M23.6207 66.1519C23.6062 65.6042 23.5434 64.9279 23.5724 64.2802C23.4902 64.8898 23.4515 65.509 23.437 66.1519C23.4322 66.2662 23.6207 66.2662 23.6207 66.1519Z" fill="#5E4F47"/>
<path d="M23.9107 62.718C23.8866 62.799 23.8721 62.88 23.8479 62.9562C23.8817 62.88 23.9107 62.8038 23.9542 62.7323C23.9736 62.7037 23.9252 62.6799 23.9107 62.718Z" fill="#5E4F47"/>
<path d="M23.8479 62.9562C23.6691 63.3467 23.5917 63.8039 23.5724 64.2754C23.6304 63.8373 23.7222 63.3991 23.8479 62.9562Z" fill="#5E4F47"/>
<path d="M25.9603 63.1276C25.9361 64.404 25.9167 65.6804 25.8926 66.9568C25.8926 67.0759 26.0811 67.0759 26.0763 66.9568C26.0521 65.6804 26.0279 64.404 26.0086 63.1276C26.0038 63.099 25.9603 63.099 25.9603 63.1276Z" fill="#5E4F47"/>
<path d="M27.188 62.7228C27.1494 63.9182 27.0043 65.1613 27.0962 66.3519C27.1059 66.4996 27.3137 66.4996 27.3282 66.3519C27.42 65.1613 27.275 63.9182 27.2364 62.7228C27.2315 62.6942 27.188 62.6942 27.188 62.7228Z" fill="#5E4F47"/>
<path d="M28.4158 62.7228C28.3819 64.0087 28.1789 65.2661 27.9421 66.5282C27.9227 66.6425 28.1016 66.6901 28.1209 66.5758C28.3143 65.2946 28.4738 64.0182 28.4641 62.718C28.4593 62.6942 28.4158 62.6942 28.4158 62.7228Z" fill="#5E4F47"/>
<path d="M28.7783 63.9325L28.73 67.1568C28.73 67.3045 28.962 67.3045 28.962 67.1568L28.9185 63.9325C28.9137 63.8468 28.7783 63.8468 28.7783 63.9325Z" fill="#5E4F47"/>
<path d="M35.7147 62.318C35.6857 63.2276 35.4923 64.285 35.676 65.1756C35.7002 65.3042 35.9177 65.3042 35.9418 65.1756C36.1207 64.285 35.9322 63.2229 35.9032 62.318C35.8935 62.2037 35.7195 62.2037 35.7147 62.318Z" fill="#5E4F47"/>
<path d="M36.9666 61.494C36.5219 62.8133 36.3527 64.1611 36.5074 65.547C36.5219 65.6899 36.7587 65.6899 36.7394 65.547C36.5557 64.1849 36.6911 62.8466 37.1019 61.5321C37.1261 61.4464 36.9956 61.413 36.9666 61.494Z" fill="#5E4F47"/>
<path d="M38.2378 61.9179C38.1895 63.1752 38.0252 64.4945 38.1218 65.7471C38.1363 65.9233 38.3829 65.9233 38.3974 65.7471C38.494 64.4897 38.3297 63.1752 38.2813 61.9179C38.2862 61.8846 38.2427 61.8846 38.2378 61.9179Z" fill="#5E4F47"/>
<path d="M39.5284 61.937C39.5623 61.8893 39.4849 61.8465 39.4463 61.8893C38.6004 63.0228 38.9242 64.7422 39.3979 65.9709C39.4414 66.0805 39.5961 66.0376 39.5768 65.9233C39.3206 64.5993 38.6632 63.1895 39.5284 61.937Z" fill="#5E4F47"/>
<path d="M40.674 62.318C40.6402 63.5848 40.5096 64.8898 40.6063 66.1519C40.616 66.2996 40.8238 66.2996 40.8383 66.1519C40.935 64.8898 40.8045 63.5848 40.7707 62.318C40.761 62.2608 40.674 62.2608 40.674 62.318Z" fill="#5E4F47"/>
<path d="M41.9018 62.5323C42.274 63.5134 42.2933 64.5088 42.2885 65.5471C42.2885 65.6328 42.4286 65.6328 42.4286 65.5471C42.419 64.4993 42.3851 63.4991 41.9936 62.5085C41.9694 62.4561 41.8824 62.4799 41.9018 62.5323Z" fill="#5E4F47"/>
<path d="M43.5597 61.9179C43.4969 63.1895 43.3519 64.4802 43.4437 65.7471C43.4582 65.9233 43.7047 65.9233 43.7192 65.7471C43.8159 64.4802 43.6661 63.1848 43.6032 61.9179C43.6032 61.8846 43.5646 61.8846 43.5597 61.9179Z" fill="#5E4F47"/>
<path d="M44.86 61.5131C44.8648 61.4559 44.773 61.4559 44.7682 61.5131C44.6086 63.0181 45.1113 64.4516 45.1307 65.9471C45.1307 66.0662 45.3192 66.0662 45.3144 65.9471C45.2612 64.4516 44.7295 63.0181 44.86 61.5131Z" fill="#5E4F47"/>
<path d="M45.9959 61.5131C46.1457 62.8561 46.4019 64.1897 46.3342 65.5471C46.3294 65.6756 46.5324 65.7042 46.5614 65.5756C46.8611 64.2087 46.3536 62.8419 46.0877 61.4988C46.0732 61.4512 45.9862 61.4607 45.9959 61.5131Z" fill="#5E4F47"/>
<path d="M47.6297 61.5131V64.5374C47.6297 64.5945 47.7215 64.5945 47.7215 64.5374V61.5131C47.7215 61.4559 47.6297 61.4559 47.6297 61.5131Z" fill="#5E4F47"/>
<path d="M48.5916 61.3416C48.6882 62.0322 48.7221 62.7275 48.7366 63.4229C48.7463 64.0039 48.6641 64.604 48.7994 65.1708C48.8236 65.2803 48.9976 65.2803 49.0218 65.1708C49.2973 63.9801 49.0266 62.4751 48.8188 61.2797C48.7849 61.1368 48.5722 61.1987 48.5916 61.3416Z" fill="#5E4F47"/>
<path d="M50.496 62.9419C50.5637 62.2703 50.5057 61.675 50.1915 61.0749C50.1529 60.9939 50.0368 61.0654 50.0707 61.1416C50.7812 62.6561 49.6405 64.304 50.4187 65.8138C50.4912 65.9519 50.7232 65.8566 50.6701 65.709C50.3317 64.7564 50.3945 63.923 50.496 62.9419Z" fill="#5E4F47"/>
<path d="M35.5116 57.0743L35.5358 52.6354C35.5358 52.4592 35.2603 52.4592 35.2603 52.6354L35.2844 57.0743C35.2844 57.2219 35.5116 57.2219 35.5116 57.0743Z" fill="#5E4F47"/>
<path d="M36.285 56.8742C36.372 55.3359 36.2657 53.7737 36.2415 52.2354C36.2415 52.2068 36.198 52.2068 36.1932 52.2354C36.169 53.7737 36.0627 55.3359 36.1497 56.8742C36.1497 56.9647 36.2802 56.9647 36.285 56.8742Z" fill="#5E4F47"/>
<path d="M37.5369 57.0743C37.7061 55.6264 37.5563 54.0976 37.5369 52.6354C37.5369 52.5164 37.3532 52.5164 37.3532 52.6354C37.3387 54.0928 37.1841 55.6216 37.3532 57.0743C37.3629 57.1933 37.5224 57.1933 37.5369 57.0743Z" fill="#5E4F47"/>
<path d="M40.8287 57.3076C41.1042 55.7455 40.6981 54.2262 41.3024 52.6878C41.3894 52.4687 41.0317 52.3735 40.9495 52.5926C40.3936 54.0023 40.3211 55.8312 40.6063 57.3076C40.6305 57.4172 40.8093 57.4172 40.8287 57.3076Z" fill="#5E4F47"/>
<path d="M43.057 57.6791C43.0667 57.8268 43.2745 57.8268 43.289 57.6791C43.405 56.2598 43.3857 54.7596 42.8298 53.426C42.796 53.3451 42.6655 53.3784 42.6945 53.4642C43.231 54.8834 42.97 56.2265 43.057 57.6791Z" fill="#5E4F47"/>
<path d="M44.9035 56.8742C44.9422 55.3264 44.802 53.7833 44.8358 52.2354C44.8358 52.2021 44.7875 52.2021 44.7875 52.2354C44.8213 53.7785 44.6812 55.3216 44.7198 56.8742C44.7247 56.9933 44.8987 56.9933 44.9035 56.8742Z" fill="#5E4F47"/>
<path d="M46.9481 56.8504C46.6243 55.3121 46.5083 53.8071 46.4744 52.2354C46.4744 52.2068 46.4309 52.2068 46.4261 52.2354C46.3923 53.769 46.2859 55.4169 46.7693 56.898C46.808 57.0124 46.9723 56.9647 46.9481 56.8504Z" fill="#5E4F47"/>
<path d="M48.6061 56.036C48.1565 54.5881 48.3596 53.3213 48.5626 51.8496C48.5722 51.7639 48.4466 51.7258 48.4272 51.8115C48.1856 53.2308 47.7554 54.7453 48.3934 56.1217C48.4514 56.2408 48.6448 56.1598 48.6061 56.036Z" fill="#5E4F47"/>
<path d="M50.2447 56.2408C49.7758 54.7596 49.8048 53.3641 49.7952 51.8353C49.7952 51.7448 49.6598 51.7496 49.655 51.8353C49.6212 53.3165 49.365 54.9453 50.032 56.3313C50.09 56.4456 50.2834 56.3599 50.2447 56.2408Z" fill="#5E4F47"/>
<path d="M51.0229 55.6645C50.9262 54.5119 50.6217 53.4022 50.5927 52.2354C50.5927 52.1782 50.5009 52.1782 50.5009 52.2354C50.5009 53.3689 50.6024 54.5786 50.8875 55.6836C50.9069 55.755 51.0277 55.7407 51.0229 55.6645Z" fill="#5E4F47"/>
<path d="M35.6711 47.6346C35.7001 47.787 35.9467 47.7489 35.9418 47.5965C35.9273 46.7869 35.9322 46.001 35.995 45.1962C36.0385 44.5722 36.0675 43.9436 35.85 43.3482C35.8306 43.2958 35.7436 43.3149 35.763 43.372C36.1835 44.7675 35.3859 46.2249 35.6711 47.6346Z" fill="#5E4F47"/>
<path d="M38.378 47.3965C38.4747 46.1153 38.5617 44.8628 38.7599 43.5911C38.7792 43.4768 38.6052 43.4292 38.581 43.5435C38.3538 44.8008 38.0735 46.1153 38.146 47.4013C38.1557 47.5441 38.3683 47.5441 38.378 47.3965Z" fill="#5E4F47"/>
<path d="M41.6504 47.1965C41.6359 46.0439 41.6166 44.8866 42.0129 43.7864C42.0419 43.7007 41.9114 43.6673 41.8776 43.7483C41.4522 44.8532 41.4377 46.0296 41.4184 47.1965C41.4184 47.3394 41.6552 47.3394 41.6504 47.1965Z" fill="#5E4F47"/>
<path d="M43.2649 46.9917C43.2745 45.8486 43.2794 44.7056 43.289 43.5626C43.289 43.4149 43.057 43.4149 43.057 43.5626C43.0667 44.7056 43.0715 45.8486 43.0812 46.9917C43.0812 47.1108 43.2649 47.1108 43.2649 46.9917Z" fill="#5E4F47"/>
<path d="M47.156 45.5534C47.1221 45.6962 47.3493 45.7581 47.3783 45.6153C47.5572 44.7342 47.417 43.6959 46.9191 42.9291C46.8708 42.8577 46.7548 42.9244 46.7983 42.9958C47.243 43.734 47.3542 44.7199 47.156 45.5534Z" fill="#5E4F47"/>
<path d="M48.8187 46.363C48.7994 46.4773 48.9783 46.5249 48.9976 46.4106C49.1813 45.3628 49.0411 44.2817 48.5771 43.3149C48.5239 43.2101 48.3692 43.3006 48.4176 43.4054C48.8526 44.3246 48.9928 45.3676 48.8187 46.363Z" fill="#5E4F47"/>
<path d="M49.8386 46.7917V43.9674C49.8386 43.8197 49.6066 43.8197 49.6066 43.9674V46.7917C49.6066 46.9393 49.8386 46.9393 49.8386 46.7917Z" fill="#5E4F47"/>
<path d="M69.971 61.3083C69.971 61.0606 69.7922 60.7939 69.5311 60.7415C64.8473 59.7985 60.1103 59.7176 55.3539 59.7128C55.3346 59.6175 55.3153 59.5223 55.2911 59.427C55.2234 59.1556 54.7787 59.2127 54.7932 59.4937C54.7981 59.5794 54.7981 59.6699 54.8029 59.7604C54.3389 59.9557 54.3582 60.7034 54.8512 60.8606C54.9189 62.7561 54.9092 64.6612 54.8802 66.552C54.8754 66.7758 55.0542 67.0616 55.3008 67.0949C59.8154 67.7188 64.6685 66.452 69.0091 68.1284C69.2895 68.238 69.6955 68.0094 69.7438 67.7188C70.087 65.5852 69.9952 63.4658 69.971 61.3083ZM68.6804 66.7711C64.6443 65.4756 60.2021 66.3662 56.021 66.0376C55.9823 64.285 55.8856 62.599 55.5908 60.8939C56.6155 60.8939 57.6451 60.9035 58.6698 60.9178C58.6118 62.6133 58.4958 64.304 58.8052 65.9852C58.839 66.1567 59.1097 66.0853 59.071 65.9138C58.7133 64.2659 58.7762 62.5942 58.781 60.9225C59.3272 60.932 59.8734 60.9416 60.4148 60.9606C60.7773 62.2799 60.4245 63.6849 60.8982 64.966C60.9368 65.0756 61.0915 65.0327 61.077 64.9184C60.8933 63.6134 60.9368 62.218 60.4921 60.9606C61.6861 60.9987 62.88 61.0511 64.0739 61.1368C64.8811 61.1987 68.7819 61.1845 68.7916 62.1846C68.8061 63.7325 68.8593 65.2375 68.6804 66.7711Z" fill="#5E4F47"/>
<path d="M55.0446 58.865C59.8154 59.1032 64.6008 59.0603 69.3716 58.865C69.7583 58.8507 70.0338 58.5078 69.9372 58.1316C69.3378 55.7836 70.1208 53.4308 69.5215 51.0733C69.478 50.8971 69.3039 50.7018 69.1154 50.6732C64.7409 50.0303 60.3084 51.7305 56.0161 50.478C55.7019 50.3875 55.4699 50.5446 55.3684 50.7685C55.2814 50.578 55.1847 50.3875 55.0639 50.2065C55.0494 50.1874 55.0204 50.197 55.0204 50.216C54.9044 52.9165 54.595 55.5883 54.4549 58.284C54.4404 58.6126 54.74 58.8507 55.0446 58.865ZM55.6584 51.5496C55.6778 51.5543 55.6923 51.5639 55.7116 51.5734C58.7327 52.4592 61.7634 51.9496 64.8473 51.6829C67.1046 51.4829 68.7867 51.7544 68.6176 54.3738C68.5402 55.5454 68.4871 56.6123 68.6659 57.7315C68.3855 57.741 68.1052 57.7458 67.8248 57.7506C67.8393 57.7315 67.8538 57.7125 67.8538 57.6839C67.9505 56.2884 67.8007 54.8453 67.762 53.4499C67.762 53.4213 67.7185 53.4213 67.7185 53.4499C67.6798 54.8501 67.53 56.2884 67.6267 57.6839C67.6267 57.7125 67.6412 57.7363 67.6605 57.7553C63.6582 57.8696 59.6607 57.8411 55.6584 57.7268C55.7358 55.7217 56.1998 53.4832 55.6584 51.5496Z" fill="#5E4F47"/>
<path d="M55.1605 49.4064C59.3804 47.9633 64.3929 49.0063 68.7625 49.0587C68.9511 49.0587 69.1782 48.9206 69.2121 48.7253C69.5698 46.4011 69.4683 44.0865 69.4538 41.748C69.4538 41.486 69.2362 41.2717 68.9704 41.2669C66.5149 41.2574 64.0594 41.2527 61.6039 41.2431C59.4722 41.2384 57.3647 40.8716 55.3249 41.648C55.1509 41.7146 55.0445 41.8432 55.001 41.9861C54.914 42.0147 54.8415 42.1004 54.8802 42.2004C55.6632 44.3055 54.7158 46.8202 54.6385 49.0063C54.6192 49.2682 54.9044 49.4968 55.1605 49.4064ZM55.5956 42.6529C58.2928 41.6099 61.8504 42.2481 64.7167 42.2385C65.2001 42.2385 68.4774 41.9194 68.487 42.5862C68.4919 43.0815 68.7287 48.1442 68.2357 48.1442C64.1174 48.1204 59.5254 47.2441 55.4941 48.4348C55.6197 46.5583 56.0306 44.4865 55.4506 42.6862C55.4989 42.6862 55.5472 42.6767 55.5956 42.6529Z" fill="#5E4F47"/>
<path d="M55.4264 40.1096C56.5381 40.7097 58.7761 40.3192 59.9459 40.3287C62.9669 40.3573 65.9445 40.0334 68.9655 40.3049C69.3764 40.343 69.5794 39.9143 69.5263 39.581C69.1879 37.4139 69.1492 35.266 69.1541 33.0799C69.1541 32.8227 68.9704 32.5798 68.719 32.5132C64.5331 31.4082 60.2262 32.937 56.0354 31.8845C55.4844 31.7464 55.1605 32.2988 55.2959 32.7037C54.7303 34.5135 53.4639 39.0523 55.4264 40.1096ZM55.5617 33.0132C55.6052 33.0323 55.6487 33.0513 55.7019 33.0656C58.4281 33.7372 61.1398 33.4371 63.9095 33.2704C64.7071 33.2228 65.495 33.2371 66.2925 33.2704C67.936 33.3371 67.9601 33.5609 67.9746 34.985C67.9891 36.3757 68.1052 37.7521 68.2937 39.1237C64.7312 38.8856 61.106 39.1618 57.5435 39.1952C56.1418 39.2095 55.6439 39.0809 55.5279 37.5521C55.4119 36.0328 55.5811 34.523 55.5617 33.0132Z" fill="#5E4F47"/>
<path d="M54.4162 30.2556C54.4114 30.5033 54.6095 30.8176 54.8802 30.8557C56.9249 31.1415 58.8874 31.7892 60.9562 31.9464C63.4213 32.1321 65.9059 31.2415 68.3517 31.1463C68.6466 31.1367 68.9559 30.9462 69.0236 30.6414C69.5795 28.0648 69.6036 25.6168 69.2411 23.0116C69.1976 22.702 68.8399 22.5115 68.5596 22.4972C64.1174 22.3306 59.6897 22.6735 55.2573 22.8783C54.9286 22.8926 54.6385 23.0878 54.5515 23.4069C54.2953 24.3452 54.2712 24.9738 54.7014 25.5978C54.9141 27.117 54.4597 28.7459 54.4162 30.2556ZM55.731 26.0216C55.7745 25.4406 55.8421 24.8643 55.905 24.288C56.05 24.2785 56.1902 24.2737 56.3352 24.2642C56.8185 25.693 56.4367 27.1694 56.543 28.6411C56.5575 28.8173 56.804 28.8173 56.8185 28.6411C56.9394 27.2694 56.949 25.5787 56.4028 24.2594C60.2456 24.0546 64.0787 23.7927 67.9312 23.8832C68.1777 25.9026 68.139 27.8076 67.7668 29.8127C65.6932 29.9794 63.6775 30.5081 61.5942 30.6081C59.5979 30.7033 57.6499 30.0699 55.6874 29.7365C55.7261 28.6506 55.7986 27.3742 55.5183 26.274C55.6294 26.2455 55.7213 26.155 55.731 26.0216Z" fill="#5E4F47"/>
<path d="M11.1788 50.059C12.8658 50.6448 14.6543 49.859 16.0947 48.9636C18.5502 47.4396 20.8849 45.6583 23.2147 43.9533C27.9517 40.4765 32.4954 36.8283 37.1406 33.2373C42.1918 29.3319 47.4605 25.6932 52.6954 22.0355C53.7781 21.2782 54.8416 20.4876 55.8905 19.6779C56.2723 20.3733 56.6929 21.0448 57.2052 21.6735C57.5097 22.0402 58.0801 21.8735 58.3121 21.5354C60.381 18.492 62.3773 15.4868 64.7409 12.7054C65.1808 12.372 65.6207 12.0481 66.0654 11.7243C66.3409 11.5814 66.6068 11.4385 66.8678 11.3052C67.6798 10.8765 66.9596 9.67156 66.1476 10.0907C62.8848 11.7719 58.0415 14.3628 54.2228 13.8103C53.6331 13.7246 52.9709 14.2914 53.3721 14.8962C53.8942 15.6773 54.3147 16.5108 54.7207 17.349C53.8603 17.9872 52.9951 18.6254 52.125 19.2493C47.0835 22.8546 41.9018 26.2647 36.8651 29.8891C32.2006 33.2468 27.7971 36.9379 22.9779 40.086C18.9708 42.7102 13.1413 45.0963 11.029 49.6923C10.9613 49.8447 11.0145 49.9971 11.1788 50.059ZM57.0844 18.9588C57.0941 18.9588 57.1086 18.9635 57.1182 18.9588C57.1134 18.9731 57.1134 18.9826 57.1086 18.9969C57.1037 18.9873 57.0941 18.9731 57.0844 18.9588Z" fill="#5E4F47"/>
<path d="M12.073 58.9269C12.9189 59.5985 14.2047 59.5604 15.2198 59.5366C17.1581 59.4889 18.8982 59.2603 20.8317 59.5985C23.3935 60.0509 26.7675 61.1225 29.136 59.5842C31.2773 58.1935 30.6972 54.5119 30.6392 52.4354C30.6344 52.2116 30.4749 51.9401 30.2284 51.902C27.1832 51.44 24.1379 51.3543 21.0589 51.4067C19.2849 51.4353 17.5109 51.5162 15.7418 51.5877C14.4609 51.64 12.9818 51.4448 11.7734 51.9068C11.4495 52.0306 11.4447 52.4402 11.7734 52.564C13.1751 53.0784 14.9926 52.7069 16.462 52.6497C18.7822 52.5545 21.1024 52.4735 23.4225 52.4783C24.0364 52.4783 29.513 52.4878 29.5082 53.0546C29.4792 55.4264 29.8223 58.7174 26.6031 58.9841C24.6068 59.1508 22.5138 58.5412 20.5562 58.203C18.7677 57.8934 17.0179 58.0982 15.2198 58.2173C13.5908 58.3221 11.9715 57.9363 12.2857 55.8836C12.3727 55.3121 12.5081 54.7644 12.5709 54.1928C12.6483 53.5118 12.3099 53.0403 11.6573 53.0069C11.6332 53.0069 11.609 53.026 11.609 53.0498C11.6863 55.1359 10.0284 57.3124 12.073 58.9269Z" fill="#5E4F47"/>
<path d="M14.2531 56.4694C14.2144 55.4597 14.1757 54.4548 14.1371 53.4451C14.1371 53.4165 14.0936 53.4165 14.0887 53.4451C14.0501 54.4548 14.0114 55.4597 13.9727 56.4694C13.9679 56.6456 14.2579 56.6456 14.2531 56.4694Z" fill="#5E4F47"/>
<path d="M15.2101 57.9172C15.2681 58.0792 15.5243 58.0173 15.476 57.8458C15.0313 56.2217 15.5678 54.6786 15.389 53.0403C15.3842 52.9831 15.2923 52.9831 15.2971 53.0403C15.3938 54.6691 14.6253 56.3313 15.2101 57.9172Z" fill="#5E4F47"/>
<path d="M17.1146 57.0743C17.0759 55.7312 17.0372 54.3834 16.9986 53.0403C16.9986 53.0117 16.9551 53.0117 16.9502 53.0403C16.9116 54.3834 16.8729 55.7312 16.8342 57.0743C16.8342 57.2505 17.1194 57.2505 17.1146 57.0743Z" fill="#5E4F47"/>
<path d="M19.5701 57.241C19.1738 55.6836 19.1254 54.2357 19.0964 52.6402C19.0964 52.5545 18.9611 52.5545 18.9563 52.6402C18.9031 54.1452 18.5647 55.955 19.314 57.3457C19.3913 57.4839 19.604 57.3886 19.5701 57.241Z" fill="#5E4F47"/>
<path d="M20.7785 57.2791C20.8752 55.8788 20.7737 54.4453 20.7544 53.045C20.7544 52.926 20.5707 52.926 20.5707 53.045C20.5562 54.4453 20.4498 55.8788 20.5465 57.2791C20.5562 57.4219 20.7689 57.4219 20.7785 57.2791Z" fill="#5E4F47"/>
<path d="M22.5719 57.2791C22.5815 57.4553 22.8377 57.4553 22.8474 57.2791C22.9392 55.8741 22.683 54.4548 22.7314 53.045C22.7314 53.0117 22.683 53.0117 22.683 53.045C22.7314 54.45 22.4752 55.8693 22.5719 57.2791Z" fill="#5E4F47"/>
<path d="M24.2588 57.2791C24.1138 56.0693 24.0364 54.8691 24.0074 53.6499C24.0074 53.5642 23.8721 53.5642 23.8672 53.6499C23.8431 54.8501 23.7367 56.136 24.0316 57.3076C24.0606 57.4315 24.2733 57.4076 24.2588 57.2791Z" fill="#5E4F47"/>
<path d="M26.5306 57.8839C26.5209 56.5408 26.5161 55.193 26.5064 53.8499C26.5064 53.7023 26.2792 53.7023 26.2744 53.8499C26.2647 55.193 26.2599 56.5408 26.2502 57.8839C26.2551 58.0601 26.5306 58.0601 26.5306 57.8839Z" fill="#5E4F47"/>
<path d="M28.5559 57.8839L28.5076 53.4499C28.5076 53.3641 28.3723 53.3641 28.3674 53.4499L28.3191 57.8839C28.3239 58.0268 28.5559 58.0268 28.5559 57.8839Z" fill="#5E4F47"/>
<path d="M58.0269 29.446C57.9979 27.8981 57.9641 26.355 57.9351 24.8072C57.9351 24.7786 57.8916 24.7786 57.8868 24.8072C57.8578 26.355 57.8239 27.8981 57.7949 29.446C57.7949 29.5936 58.0318 29.5936 58.0269 29.446Z" fill="#5E4F47"/>
<path d="M59.5737 24.4071C59.5737 24.3785 59.5254 24.3785 59.5254 24.4071C59.5447 24.8214 59.5496 25.2358 59.5496 25.6549C59.5496 25.2358 59.5544 24.8214 59.5737 24.4071Z" fill="#5E4F47"/>
<path d="M59.6656 29.446C59.6365 28.1934 59.5544 26.9313 59.5495 25.674C59.5447 26.9313 59.4625 28.1982 59.4335 29.446C59.4335 29.5936 59.6704 29.5936 59.6656 29.446Z" fill="#5E4F47"/>
<path d="M60.6613 28.8411C60.671 28.9888 60.8837 28.9888 60.8933 28.8411C60.9803 27.3647 60.7338 25.8788 60.8015 24.4023C60.8015 24.3737 60.7483 24.3737 60.7532 24.4023C60.8257 25.8835 60.5743 27.3695 60.6613 28.8411Z" fill="#5E4F47"/>
<path d="M62.1211 29.0459L62.0534 24.8119C62.0534 24.7548 61.9615 24.7548 61.9615 24.8119L61.8939 29.0459C61.889 29.1888 62.1211 29.1888 62.1211 29.0459Z" fill="#5E4F47"/>
<path d="M63.7355 29.6508L63.7113 25.6168C63.7113 25.5311 63.576 25.5311 63.5712 25.6168L63.547 29.6508C63.5518 29.7651 63.7355 29.7651 63.7355 29.6508Z" fill="#5E4F47"/>
<path d="M65.1421 28.4411C65.1373 28.6173 65.4176 28.6173 65.4176 28.4411C65.408 27.0551 65.5433 25.6597 64.9294 24.3737C64.8908 24.2928 64.7748 24.3642 64.8086 24.4404C65.3693 25.7168 65.176 27.0932 65.1421 28.4411Z" fill="#5E4F47"/>
<path d="M66.6212 28.8411C66.5922 27.4981 66.5584 26.1502 66.5294 24.8072C66.5294 24.7786 66.4859 24.7786 66.4811 24.8072C66.4521 26.1502 66.4182 27.4981 66.3892 28.8411C66.3892 28.9888 66.6261 28.9888 66.6212 28.8411Z" fill="#5E4F47"/>
<path d="M57.0022 37.714C57.0118 37.8331 57.1762 37.8283 57.1859 37.714C57.3067 36.3662 57.3454 34.885 56.7653 33.6372C56.717 33.5324 56.5575 33.6229 56.6058 33.7276C57.1955 35.0326 56.9055 36.3519 57.0022 37.714Z" fill="#5E4F47"/>
<path d="M58.4329 38.2903C57.9786 36.8138 58.0366 35.4041 58.0511 33.8848C58.0511 33.7086 57.7756 33.7086 57.7756 33.8848C57.7611 35.3708 57.5532 36.9901 58.2251 38.376C58.2783 38.4951 58.4716 38.4141 58.4329 38.2903Z" fill="#5E4F47"/>
<path d="M59.6656 38.1188C59.6365 36.9043 59.5737 35.6613 59.9846 34.4944C59.9942 34.4659 59.9507 34.4563 59.9411 34.4849C59.4722 35.6375 59.4722 36.8948 59.4384 38.1188C59.4335 38.2665 59.6704 38.2665 59.6656 38.1188Z" fill="#5E4F47"/>
<path d="M61.5024 38.0902C61.0819 36.7329 61.2607 35.285 61.2559 33.8848C61.2559 33.7991 61.1205 33.7991 61.1157 33.8848C61.0867 35.3041 60.8788 36.7615 61.28 38.1522C61.3235 38.2903 61.5459 38.2284 61.5024 38.0902Z" fill="#5E4F47"/>
<path d="M62.9622 37.9188C62.9477 36.4376 62.9332 34.9612 62.9138 33.48C62.9138 33.3609 62.7301 33.3609 62.7301 33.48C62.7156 34.9564 62.7011 36.4376 62.6866 37.9188C62.6866 38.095 62.9622 38.095 62.9622 37.9188Z" fill="#5E4F47"/>
<path d="M64.5717 37.5425C64.7651 36.2566 64.9246 34.9802 64.9149 33.68C64.9149 33.6229 64.8231 33.6229 64.8231 33.68C64.7893 34.9659 64.5862 36.2185 64.3494 37.4806C64.3252 37.6283 64.5524 37.6854 64.5717 37.5425Z" fill="#5E4F47"/>
<path d="M66.1862 37.9426C66.4037 36.6472 66.7227 35.4089 66.5536 34.0848C66.5439 34.0277 66.4569 34.0277 66.4617 34.0848C66.6019 35.3946 66.2539 36.6186 66.0122 37.8902C65.988 38.0093 66.1669 38.0569 66.1862 37.9426Z" fill="#5E4F47"/>
<path d="M67.0079 38.7475C67.2206 37.5378 67.4188 36.3281 67.4429 35.0945C67.4429 34.9469 67.2158 34.9469 67.2109 35.0945C67.2013 36.309 67.0224 37.5044 66.8291 38.6999C66.8097 38.8142 66.9838 38.8666 67.0079 38.7475Z" fill="#5E4F47"/>
<path d="M57.21 46.9917C57.1714 45.6248 56.949 44.2912 56.7315 42.9482C56.7218 42.9005 56.6348 42.9101 56.6397 42.9625C56.8137 44.3055 56.9877 45.6391 56.978 46.9964C56.978 47.1393 57.2149 47.1393 57.21 46.9917Z" fill="#5E4F47"/>
<path d="M58.0269 46.9917C58.0124 45.782 57.9979 44.5722 57.9834 43.3625C57.9834 43.2768 57.8481 43.2768 57.8433 43.3625C57.8288 44.5722 57.8143 45.782 57.7949 46.9917C57.7949 47.1393 58.0318 47.1393 58.0269 46.9917Z" fill="#5E4F47"/>
<path d="M59.6897 46.9917C59.6607 45.6486 59.6269 44.3008 59.5979 42.9577C59.5979 42.9005 59.506 42.9005 59.506 42.9577C59.477 44.3008 59.4432 45.6486 59.4142 46.9917C59.4094 47.1679 59.6897 47.1679 59.6897 46.9917Z" fill="#5E4F47"/>
<path d="M61.193 45.882C61.164 46.4535 60.961 47.0298 61.0287 47.5965C61.0432 47.7347 61.251 47.8347 61.3284 47.6775C61.8746 46.544 61.7054 44.8866 61.3912 43.7102C61.3235 43.4578 60.9272 43.5626 60.99 43.8197C61.164 44.5056 61.222 45.1771 61.193 45.882Z" fill="#5E4F47"/>
<path d="M62.5078 47.3965C62.619 46.0725 62.4836 44.6913 62.4643 43.3625C62.4643 43.3054 62.3725 43.3054 62.3725 43.3625C62.3483 44.6913 62.2178 46.0725 62.3241 47.3965C62.3338 47.5108 62.4981 47.5108 62.5078 47.3965Z" fill="#5E4F47"/>
<path d="M63.7114 47.3965C63.6969 46.7202 63.6631 46.0344 63.6437 45.3486C63.6244 46.0344 63.5857 46.7202 63.576 47.3965C63.5712 47.4822 63.7162 47.4822 63.7114 47.3965Z" fill="#5E4F47"/>
<path d="M63.6678 43.5626C63.6678 43.5292 63.6147 43.5292 63.6195 43.5626C63.634 43.7721 63.6388 43.9817 63.6437 44.1912C63.6485 43.9864 63.6533 43.7721 63.6678 43.5626Z" fill="#5E4F47"/>
<path d="M65.3935 47.3679C64.8135 45.9487 64.9488 44.4579 64.944 42.9625C64.944 42.872 64.8086 42.8767 64.8038 42.9625C64.7748 44.4817 64.6104 45.9772 65.1712 47.4298C65.2243 47.5632 65.4467 47.5013 65.3935 47.3679Z" fill="#5E4F47"/>
<path d="M66.2152 46.7917C66.1379 45.4962 66.0509 44.2103 66.5343 42.9672C66.5439 42.9387 66.4956 42.9244 66.4859 42.9529C66.1621 44.2008 65.6835 45.52 65.9881 46.8202C66.0171 46.9441 66.2201 46.9202 66.2152 46.7917Z" fill="#5E4F47"/>
<path d="M67.0127 47.8299C67.0563 47.9395 67.2496 47.9395 67.2399 47.8013C67.1723 46.8202 67.2641 45.8915 67.3994 44.9199C67.4913 44.2627 67.5638 43.5959 67.3704 42.9482C67.3511 42.891 67.2689 42.9148 67.2834 42.972C67.6556 44.5722 66.3844 46.2725 67.0127 47.8299Z" fill="#5E4F47"/>
<path d="M58.0511 57.0743C58.0849 56.3932 57.8287 55.6931 57.7852 55.0073C57.7369 54.2214 57.8384 53.4308 58.0221 52.6688C58.0559 52.5259 57.8432 52.4688 57.7997 52.6069C57.4227 53.8737 57.0263 55.955 57.7901 57.1409C57.8674 57.26 58.0414 57.2124 58.0511 57.0743Z" fill="#5E4F47"/>
<path d="M59.2499 57.2457C58.9695 55.9693 58.8535 54.7548 58.8438 53.4451C58.8438 53.2975 58.6167 53.2975 58.6118 53.4451C58.6022 54.7072 58.5296 56.117 59.0275 57.3076C59.0855 57.441 59.2837 57.3934 59.2499 57.2457Z" fill="#5E4F47"/>
<path d="M60.8933 56.8742C60.9997 55.6121 60.8885 54.3071 60.8692 53.0403C60.8692 52.9212 60.6855 52.9212 60.6855 53.0403C60.671 54.3024 60.555 55.6121 60.6613 56.8742C60.6758 57.0219 60.8788 57.0219 60.8933 56.8742Z" fill="#5E4F47"/>
<path d="M62.9379 56.4694V53.0403C62.9379 52.8926 62.7059 52.8926 62.7059 53.0403V56.4694C62.7108 56.617 62.9379 56.617 62.9379 56.4694Z" fill="#5E4F47"/>
<path d="M63.7597 56.2694C63.7355 55.0597 63.7162 53.8499 63.692 52.6402C63.692 52.5831 63.6002 52.5831 63.6002 52.6402C63.576 53.8499 63.5567 55.0597 63.5325 56.2694C63.5228 56.417 63.7597 56.417 63.7597 56.2694Z" fill="#5E4F47"/>
<path d="M65.3935 56.4694L65.3693 53.2451C65.3693 53.126 65.1857 53.126 65.1857 53.2451L65.1615 56.4694C65.1663 56.617 65.3983 56.617 65.3935 56.4694Z" fill="#5E4F47"/>
<path d="M66.9402 56.6742C66.9499 55.8693 66.9547 55.0597 66.9644 54.2548C66.9644 54.1976 66.8726 54.1976 66.8726 54.2548C66.8822 55.0597 66.8871 55.8693 66.8967 56.6742C66.8967 56.7028 66.9402 56.7028 66.9402 56.6742Z" fill="#5E4F47"/>
<path d="M56.2917 61.8988C56.2723 61.8846 56.2433 61.9036 56.2578 61.9274C56.9152 62.9895 56.2723 64.4373 56.5527 65.5804C56.5865 65.7137 56.7847 65.709 56.8185 65.5804C57.0167 64.8279 56.9394 63.9801 56.8765 63.2133C56.833 62.7085 56.6929 62.237 56.2917 61.8988Z" fill="#5E4F47"/>
<path d="M62.1162 61.6845C62.0727 61.5464 61.8552 61.6036 61.8939 61.7464C62.2371 62.9419 61.9374 64.1897 62.2806 65.3804C62.3289 65.5471 62.5996 65.4756 62.5464 65.3089C62.1936 64.1182 62.4739 62.8752 62.1162 61.6845Z" fill="#5E4F47"/>
<path d="M63.982 61.9179C63.9482 63.18 63.8225 64.4897 63.9144 65.7519C63.9289 65.9281 64.1754 65.9281 64.1899 65.7519C64.2817 64.4897 64.1512 63.1848 64.1222 61.9179C64.1174 61.8274 63.9869 61.8274 63.982 61.9179Z" fill="#5E4F47"/>
<path d="M66.0509 61.9179C66.0025 63.099 65.7802 64.4135 65.9639 65.5852C65.9832 65.7137 66.2104 65.7137 66.2297 65.5852C66.4182 64.4183 66.1911 63.099 66.1427 61.9179C66.1427 61.856 66.0557 61.856 66.0509 61.9179Z" fill="#5E4F47"/>
<path d="M67.646 62.1179C67.6363 63.261 67.6315 64.404 67.6218 65.547C67.6218 65.6947 67.8538 65.6947 67.8538 65.547C67.8442 64.404 67.8393 63.261 67.8297 62.1179C67.8297 61.9989 67.646 61.9989 67.646 62.1179Z" fill="#5E4F47"/>
</g>
<defs>
<clipPath id="clip0_202_2">
<rect width="59" height="59" fill="white" transform="translate(11 10)"/>
</clipPath>
</defs>
</svg>
