<svg width="258" height="66" viewBox="0 0 258 66" fill="none" xmlns="http://www.w3.org/2000/svg">
<path d="M254.452 1.62239C254.243 0.820644 253.424 0.33976 252.622 0.548307L239.557 3.94678C238.755 4.15533 238.275 4.97433 238.483 5.77608C238.692 6.57783 239.511 7.05871 240.312 6.85016L251.926 3.8293L254.947 15.4428C255.155 16.2446 255.974 16.7255 256.776 16.5169C257.578 16.3084 258.059 15.4894 257.85 14.6876L254.452 1.62239ZM0.32918 40.3416C2.46244 41.4083 15.3255 46.4389 34.3516 51.6805C53.4149 56.9323 78.766 62.4246 105.893 64.3712C160.055 68.2578 221.844 58.0252 254.294 2.75949L251.706 1.24051C220.156 54.9748 159.945 65.2422 106.107 61.3788C79.234 59.4504 54.0851 54.0052 35.1484 48.7882C16.1745 43.5611 3.53756 38.5917 1.67082 37.6584L0.32918 40.3416Z" fill="#E9CFBE"/>
</svg>
