<svg width="38" height="22" viewBox="0 0 38 22" fill="none" xmlns="http://www.w3.org/2000/svg">
<path fill-rule="evenodd" clip-rule="evenodd" d="M36.85 1.48971C37.1109 0.631714 36.85 0 35.6007 0H31.4757C30.426 0 29.942 0.545286 29.6796 1.14714C29.6796 1.14714 27.5817 6.16943 24.6101 9.43171C23.6484 10.3777 23.2116 10.6779 22.6867 10.6779C22.4243 10.6779 22.0299 10.3777 22.0299 9.51814V1.48971C22.0299 0.458857 21.7407 0 20.867 0H14.3801C13.7249 0 13.3304 0.477714 13.3304 0.931857C13.3304 1.90771 14.817 2.134 14.9694 4.88086V10.8491C14.9694 12.1581 14.729 12.3954 14.2041 12.3954C12.8056 12.3954 9.40343 7.34957 7.38414 1.57614C6.99286 0.452571 6.59686 0 5.54243 0H1.41429C0.235714 0 0 0.545286 0 1.14714C0 2.21886 1.39857 7.54286 6.51357 14.5844C9.92357 19.393 14.7243 22 19.0976 22C21.7203 22 22.044 21.4217 22.044 20.4239V16.7891C22.044 15.631 22.2923 15.4 23.1236 15.4C23.7364 15.4 24.7846 15.7017 27.2329 18.0196C30.03 20.768 30.4904 22 32.065 22H36.19C37.3686 22 37.9594 21.4217 37.62 20.2777C37.246 19.14 35.9103 17.4884 34.1393 15.5289C33.1776 14.4131 31.735 13.211 31.2966 12.6091C30.6853 11.8376 30.8597 11.4934 31.2966 10.8067C31.2966 10.8067 36.3251 3.85157 36.8484 1.48971H36.85Z" fill="white"/>
</svg>
